<svg xmlns="http://www.w3.org/2000/svg" xmlns:xlink="http://www.w3.org/1999/xlink" width="418" height="241" viewBox="0 0 418 241"><defs><style>.a,.d,.g{fill:#e608e6;}.b,.e,.h{fill:#2df0ff;}.c,.f,.i{fill:#fff;}.d,.e,.f{font-size:117px;}.d,.e,.f,.g,.h,.i{font-family:Roboto-Bold, Roboto;font-weight:700;}.g,.h,.i{font-size:59px;}.j{filter:url(#c);}.k{filter:url(#a);}</style><filter id="a" x="179" y="0" width="220" height="158" filterUnits="userSpaceOnUse"><feOffset input="SourceAlpha"/><feGaussianBlur stdDeviation="3" result="b"/><feFlood flood-opacity="0.302"/><feComposite operator="in" in2="b"/><feComposite in="SourceGraphic"/></filter><filter id="c" x="0" y="152" width="418" height="89" filterUnits="userSpaceOnUse"><feOffset input="SourceAlpha"/><feGaussianBlur stdDeviation="3" result="d"/><feFlood flood-opacity="0.302"/><feComposite operator="in" in2="d"/><feComposite in="SourceGraphic"/></filter></defs><g transform="translate(-474 -230)"><g transform="translate(493.834 248.645)"><g transform="translate(1.939 23.95)"><g transform="translate(119.823 12.445)"><path class="a" d="M244.553,83.706h-14.5a1.42,1.42,0,0,1,0-2.839h14.5a1.42,1.42,0,1,1,0,2.839Z" transform="translate(-228.637 -80.867)"/></g><g transform="translate(124.489 35.119)"><path class="a" d="M244.862,97.555H232.907a1.419,1.419,0,1,1,0-2.839h11.955a1.419,1.419,0,1,1,0,2.839Z" transform="translate(-231.487 -94.716)"/></g><g transform="translate(134.442 39.435)"><path class="a" d="M245.068,100.191h-6.082a1.42,1.42,0,0,1,0-2.839h6.082a1.42,1.42,0,0,1,0,2.839Z" transform="translate(-237.566 -97.352)"/></g><g transform="translate(127.712)"><path class="a" d="M237.337,76.105h-2.462a1.42,1.42,0,0,1,0-2.839h2.462a1.42,1.42,0,0,1,0,2.839Z" transform="translate(-233.455 -73.266)"/></g><g transform="translate(114.597)"><path class="a" d="M235.468,76.105h-8.6a1.42,1.42,0,0,1,0-2.839h8.6a1.42,1.42,0,1,1,0,2.839Z" transform="translate(-225.445 -73.266)"/></g><g transform="translate(0 44.481)"><path class="b" d="M165.475,103.273h-8.6a1.42,1.42,0,1,1,0-2.839h8.6a1.42,1.42,0,0,1,0,2.839Z" transform="translate(-155.452 -100.434)"/></g><g transform="translate(4.614 15.855)"><path class="b" d="M168.293,85.789h-8.6a1.42,1.42,0,0,1,0-2.839h8.6a1.42,1.42,0,0,1,0,2.839Z" transform="translate(-158.27 -82.95)"/></g><g transform="translate(8.917 2.466)"><path class="b" d="M180.337,77.611h-18.02a1.42,1.42,0,1,1,0-2.839h18.02a1.42,1.42,0,1,1,0,2.839Z" transform="translate(-160.898 -74.772)"/></g><g transform="translate(12.782 71.408)"><path class="b" d="M174.053,119.719h-9.375a1.42,1.42,0,1,1,0-2.839h9.375a1.42,1.42,0,1,1,0,2.839Z" transform="translate(-163.259 -116.88)"/></g><g transform="translate(4.617 71.408)"><path class="b" d="M162.406,119.719h-2.715a1.42,1.42,0,0,1,0-2.839h2.715a1.42,1.42,0,1,1,0,2.839Z" transform="translate(-158.272 -116.88)"/></g><g transform="translate(118.793 65.767)"><path class="a" d="M246.006,116.274H229.428a1.42,1.42,0,1,1,0-2.839h16.579a1.42,1.42,0,0,1,0,2.839Z" transform="translate(-228.008 -113.435)"/></g><g transform="translate(114.597 71.732)"><path class="a" d="M239.7,119.917H226.865a1.419,1.419,0,0,1,0-2.839H239.7a1.419,1.419,0,1,1,0,2.839Z" transform="translate(-225.445 -117.078)"/></g></g><g transform="translate(10.944 0)"><path class="b" d="M220.745,178.225a59.794,59.794,0,1,1,59.795-59.793A59.861,59.861,0,0,1,220.745,178.225Zm0-115.265a55.471,55.471,0,1,0,55.472,55.472A55.534,55.534,0,0,0,220.745,62.96Z" transform="translate(-160.952 -58.638)"/><g transform="translate(33.474 82.575)"><path class="b" d="M229.713,117.718H185.719a4.322,4.322,0,1,1,0-8.645h43.993a4.322,4.322,0,0,1,0,8.645Z" transform="translate(-181.397 -109.073)"/></g><g transform="translate(26.08 34.806)"><path class="b" d="M198.933,80.74a2.881,2.881,0,0,0-4.074,0L188.33,87.27,181.8,80.74a2.881,2.881,0,0,0-4.074,4.075l6.529,6.529-6.529,6.529a2.881,2.881,0,0,0,4.074,4.075l6.531-6.529,6.529,6.529a2.881,2.881,0,1,0,4.074-4.075L192.4,91.345l6.529-6.529A2.88,2.88,0,0,0,198.933,80.74Z" transform="translate(-176.881 -79.897)"/><path class="b" d="M219.6,91.345l6.529-6.529a2.881,2.881,0,1,0-4.074-4.075l-6.531,6.529L209,80.74a2.882,2.882,0,0,0-4.075,4.075l6.531,6.529-6.531,6.529A2.882,2.882,0,0,0,209,101.949l6.529-6.529,6.531,6.529a2.881,2.881,0,1,0,4.074-4.075Z" transform="translate(-159.549 -79.897)"/></g><g transform="translate(5.766 2.883)"><path class="a" d="M224.267,179.986a59.794,59.794,0,1,1,59.795-59.793A59.861,59.861,0,0,1,224.267,179.986Zm0-115.265a55.471,55.471,0,1,0,55.472,55.472A55.535,55.535,0,0,0,224.267,64.721Z" transform="translate(-164.474 -60.399)"/><g transform="translate(33.476 82.575)"><path class="a" d="M233.236,119.479H189.242a4.322,4.322,0,0,1,0-8.645h43.993a4.322,4.322,0,1,1,0,8.645Z" transform="translate(-184.92 -110.834)"/></g><g transform="translate(26.08 34.806)"><path class="a" d="M202.457,82.5a2.883,2.883,0,0,0-4.075,0l-6.529,6.531L185.323,82.5a2.882,2.882,0,0,0-4.075,4.075l6.529,6.529-6.529,6.529a2.882,2.882,0,1,0,4.075,4.075l6.529-6.529,6.529,6.529a2.882,2.882,0,1,0,4.075-4.075l-6.529-6.529,6.529-6.529A2.883,2.883,0,0,0,202.457,82.5Z" transform="translate(-180.403 -81.658)"/><path class="a" d="M223.124,93.106l6.531-6.529A2.882,2.882,0,1,0,225.58,82.5l-6.529,6.531L212.519,82.5a2.881,2.881,0,0,0-4.074,4.075l6.529,6.529-6.529,6.529a2.881,2.881,0,1,0,4.074,4.075l6.531-6.529,6.529,6.529a2.882,2.882,0,1,0,4.075-4.075Z" transform="translate(-163.071 -81.658)"/></g></g><g transform="translate(2.883 1.442)"><path class="c" d="M222.506,179.1A59.793,59.793,0,1,1,282.3,119.312,59.861,59.861,0,0,1,222.506,179.1Zm0-115.263a55.471,55.471,0,1,0,55.472,55.471A55.533,55.533,0,0,0,222.506,63.841Z" transform="translate(-162.713 -59.519)"/><g transform="translate(33.476 82.575)"><path class="c" d="M231.475,118.6H187.481a4.322,4.322,0,1,1,0-8.645h43.993a4.322,4.322,0,0,1,0,8.645Z" transform="translate(-183.159 -109.954)"/></g><g transform="translate(26.08 34.805)"><path class="c" d="M200.7,81.622a2.88,2.88,0,0,0-4.075,0l-6.529,6.529-6.531-6.529a2.881,2.881,0,0,0-4.074,4.075l6.529,6.529-6.529,6.529a2.88,2.88,0,1,0,4.074,4.074l6.531-6.529,6.529,6.529a2.881,2.881,0,0,0,4.075-4.074l-6.531-6.529L200.7,85.7A2.883,2.883,0,0,0,200.7,81.622Z" transform="translate(-178.642 -80.777)"/><path class="c" d="M221.363,92.226l6.529-6.529a2.881,2.881,0,0,0-4.074-4.075l-6.531,6.529-6.529-6.529a2.882,2.882,0,1,0-4.075,4.075l6.531,6.529-6.531,6.529a2.881,2.881,0,1,0,4.075,4.074l6.529-6.529,6.531,6.529a2.88,2.88,0,0,0,4.074-4.074Z" transform="translate(-161.31 -80.777)"/></g></g></g><g transform="translate(0 12.055)"><g transform="translate(114.826 18.553)"><path class="c" d="M239.272,80.326H225.9a1.5,1.5,0,0,1,0-2.993h13.375a1.5,1.5,0,1,1,0,2.993Z" transform="translate(-224.401 -77.333)"/></g><g transform="translate(4.494 63.621)"><path class="c" d="M175.476,107.852H158.509a1.5,1.5,0,0,1,0-2.993h16.967a1.5,1.5,0,0,1,0,2.993Z" transform="translate(-157.013 -104.859)"/></g><g transform="translate(26.285 7.677)"><path class="c" d="M187.2,73.685H171.818a1.5,1.5,0,0,1,0-2.995H187.2a1.5,1.5,0,0,1,0,2.995Z" transform="translate(-170.322 -70.69)"/></g><g transform="translate(6.425 34.784)"><path class="c" d="M176.593,90.241h-16.9a1.5,1.5,0,0,1,0-2.995h16.9a1.5,1.5,0,0,1,0,2.995Z" transform="translate(-158.192 -87.246)"/></g><g transform="translate(19.709 3.101)"><path class="c" d="M173.9,70.89h-6.1a1.5,1.5,0,1,1,0-2.995h6.1a1.5,1.5,0,0,1,0,2.995Z" transform="translate(-166.306 -67.895)"/></g><g transform="translate(102.858 91.67)"><path class="c" d="M237.662,124.986H218.589a1.5,1.5,0,1,1,0-2.995h19.072a1.5,1.5,0,0,1,0,2.995Z" transform="translate(-217.091 -121.991)"/></g><g transform="translate(123.011 40.154)"><path class="c" d="M244.759,93.519H230.9a1.5,1.5,0,0,1,0-2.993h13.863a1.5,1.5,0,1,1,0,2.993Z" transform="translate(-229.4 -90.526)"/></g><g transform="translate(116.961 65.345)"><path class="c" d="M252.548,108.907H227.2a1.5,1.5,0,0,1,0-2.995h25.347a1.5,1.5,0,1,1,0,2.995Z" transform="translate(-225.705 -105.912)"/></g><g transform="translate(127.283 91.67)"><path class="c" d="M235.763,124.986h-2.258a1.5,1.5,0,0,1,0-2.995h2.258a1.5,1.5,0,1,1,0,2.995Z" transform="translate(-232.009 -121.991)"/></g><g transform="translate(126.651 70.348)"><path class="c" d="M239.641,111.963h-6.52a1.5,1.5,0,1,1,0-2.995h6.52a1.5,1.5,0,0,1,0,2.995Z" transform="translate(-231.623 -108.968)"/></g><g transform="translate(8.104 40.154)"><path class="c" d="M170.222,93.519h-9.508a1.5,1.5,0,1,1,0-2.993h9.508a1.5,1.5,0,1,1,0,2.993Z" transform="translate(-159.218 -90.526)"/></g><g transform="translate(11.952 77.467)"><path class="c" d="M172.574,116.309h-9.509a1.5,1.5,0,0,1,0-2.993h9.509a1.5,1.5,0,0,1,0,2.993Z" transform="translate(-161.568 -113.316)"/></g><g transform="translate(103.771)"><path class="c" d="M232.144,69h-13a1.5,1.5,0,0,1,0-2.995h13a1.5,1.5,0,0,1,0,2.995Z" transform="translate(-217.649 -66.001)"/></g><g transform="translate(20.9 95.366)"><path class="c" d="M184.573,127.243H168.529a1.5,1.5,0,0,1,0-2.995h16.044a1.5,1.5,0,1,1,0,2.995Z" transform="translate(-167.033 -124.248)"/></g><g transform="translate(0 34.975)"><path class="c" d="M157.734,90.356h-1.968a1.5,1.5,0,1,1,0-2.993h1.968a1.5,1.5,0,1,1,0,2.993Z" transform="translate(-154.268 -87.363)"/></g></g></g><g transform="translate(653.23 231.944)"><text class="d" transform="translate(17.769 125.056)"><tspan x="0" y="0">404</tspan></text><text class="e" transform="translate(-0.231 111.056)"><tspan x="0" y="0">404</tspan></text><g class="k" transform="matrix(1, 0, 0, 1, -179.23, -1.94)"><text class="f" transform="translate(188 120)"><tspan x="0" y="0">404</tspan></text></g></g><g transform="translate(478.57 387.12)"><text class="g" transform="translate(9.43 62.88)"><tspan x="0" y="0">page not found</tspan></text><text class="h" transform="translate(0.43 55.88)"><tspan x="0" y="0">page not found</tspan></text><g class="j" transform="matrix(1, 0, 0, 1, -4.57, -157.12)"><text class="i" transform="translate(9 217)"><tspan x="0" y="0">page not found</tspan></text></g></g></g></svg>