<svg width="240" height="140" viewBox="0 0 240 140" fill="none" xmlns="http://www.w3.org/2000/svg">
<path d="M8.03347 0H231.967C236.404 0 240 3.53155 240 7.88732V132.113C240 136.468 236.404 140 231.967 140H8.03347C3.59699 140 0 136.468 0 132.113V7.88732C0 3.53155 3.59699 0 8.03347 0Z" fill="black"/>
<path d="M173.038 55.5458H161.379C161.082 55.5379 160.799 55.4142 160.592 55.201C160.384 54.9878 160.268 54.702 160.268 54.4044C160.268 54.1069 160.384 53.8211 160.592 53.6079C160.799 53.3947 161.082 53.271 161.379 53.2631H173.038C173.19 53.2591 173.342 53.2856 173.484 53.3411C173.626 53.3967 173.756 53.4801 173.865 53.5865C173.974 53.6928 174.061 53.82 174.12 53.9605C174.179 54.101 174.21 54.2519 174.21 54.4044C174.21 54.5569 174.179 54.7078 174.12 54.8483C174.061 54.9888 173.974 55.116 173.865 55.2224C173.756 55.3288 173.626 55.4122 173.484 55.4677C173.342 55.5233 173.19 55.5498 173.038 55.5458V55.5458Z" fill="#E608E6"/>
<path d="M174.747 73.7768H165.134C164.832 73.7768 164.541 73.6565 164.327 73.4425C164.113 73.2285 163.993 72.9382 163.993 72.6355C163.993 72.3328 164.113 72.0425 164.327 71.8284C164.541 71.6144 164.832 71.4941 165.134 71.4941H174.747C175.049 71.4941 175.34 71.6144 175.554 71.8284C175.768 72.0425 175.888 72.3328 175.888 72.6355C175.888 72.9382 175.768 73.2285 175.554 73.4425C175.34 73.6565 175.049 73.7768 174.747 73.7768V73.7768Z" fill="#E608E6"/>
<path d="M178.027 77.247H173.137C172.839 77.2391 172.557 77.1154 172.349 76.9022C172.142 76.689 172.025 76.4032 172.025 76.1057C172.025 75.8081 172.142 75.5223 172.349 75.3091C172.557 75.096 172.839 74.9723 173.137 74.9644H178.027C178.324 74.9723 178.607 75.096 178.815 75.3091C179.022 75.5223 179.138 75.8081 179.138 76.1057C179.138 76.4032 179.022 76.689 178.815 76.9022C178.607 77.1154 178.324 77.2391 178.027 77.247V77.247Z" fill="#E608E6"/>
<path d="M169.705 45.54H167.726C167.428 45.5321 167.146 45.4084 166.938 45.1952C166.73 44.982 166.614 44.6962 166.614 44.3987C166.614 44.1011 166.73 43.8153 166.938 43.6021C167.146 43.3889 167.428 43.2652 167.726 43.2573H169.705C170.003 43.2652 170.285 43.3889 170.493 43.6021C170.7 43.8153 170.817 44.1011 170.817 44.3987C170.817 44.6962 170.7 44.982 170.493 45.1952C170.285 45.4084 170.003 45.5321 169.705 45.54V45.54Z" fill="#E608E6"/>
<path d="M164.098 45.5399H157.183C156.886 45.532 156.603 45.4083 156.396 45.1951C156.188 44.9819 156.072 44.6961 156.072 44.3986C156.072 44.101 156.188 43.8152 156.396 43.602C156.603 43.3888 156.886 43.2651 157.183 43.2572H164.098C164.25 43.2532 164.402 43.2797 164.544 43.3353C164.686 43.3908 164.816 43.4742 164.925 43.5806C165.034 43.687 165.121 43.8142 165.18 43.9547C165.239 44.0951 165.27 44.2461 165.27 44.3986C165.27 44.5511 165.239 44.702 165.18 44.8425C165.121 44.983 165.034 45.1102 164.925 45.2165C164.816 45.3229 164.686 45.4063 164.544 45.4619C164.402 45.5174 164.25 45.5439 164.098 45.5399V45.5399Z" fill="#E608E6"/>
<path d="M71.9578 81.3041H65.0431C64.8907 81.3081 64.739 81.2816 64.597 81.226C64.455 81.1705 64.3255 81.0871 64.2163 80.9807C64.107 80.8743 64.0202 80.7471 63.9609 80.6066C63.9016 80.4662 63.8711 80.3152 63.8711 80.1627C63.8711 80.0102 63.9016 79.8593 63.9609 79.7188C64.0202 79.5783 64.107 79.4511 64.2163 79.3448C64.3255 79.2384 64.455 79.155 64.597 79.0994C64.739 79.0439 64.8907 79.0174 65.0431 79.0214H71.9578C72.2553 79.0293 72.5379 79.153 72.7455 79.3662C72.9531 79.5794 73.0692 79.8652 73.0692 80.1627C73.0692 80.4603 72.9531 80.7461 72.7455 80.9593C72.5379 81.1724 72.2553 81.2962 71.9578 81.3041V81.3041Z" fill="#2DF0FF"/>
<path d="M75.6677 58.288H68.753C68.4556 58.2801 68.173 58.1564 67.9654 57.9432C67.7578 57.7301 67.6416 57.4443 67.6416 57.1467C67.6416 56.8491 67.7578 56.5633 67.9654 56.3502C68.173 56.137 68.4556 56.0133 68.753 56.0054H75.6677C75.9652 56.0133 76.2478 56.137 76.4554 56.3502C76.663 56.5633 76.7792 56.8491 76.7792 57.1467C76.7792 57.4443 76.663 57.7301 76.4554 57.9432C76.2478 58.1564 75.9652 58.2801 75.6677 58.288V58.288Z" fill="#2DF0FF"/>
<path d="M86.6983 47.5223H72.2096C72.0572 47.5264 71.9055 47.4998 71.7635 47.4443C71.6215 47.3888 71.492 47.3053 71.3828 47.1989C71.2735 47.0926 71.1867 46.9654 71.1274 46.8249C71.0681 46.6844 71.0376 46.5335 71.0376 46.381C71.0376 46.2285 71.0681 46.0776 71.1274 45.9371C71.1867 45.7966 71.2735 45.6694 71.3828 45.563C71.492 45.4566 71.6215 45.3732 71.7635 45.3177C71.9055 45.2621 72.0572 45.2356 72.2096 45.2397H86.6983C86.8508 45.2356 87.0025 45.2621 87.1445 45.3177C87.2865 45.3732 87.4159 45.4566 87.5252 45.563C87.6344 45.6694 87.7213 45.7966 87.7805 45.9371C87.8398 46.0776 87.8704 46.2285 87.8704 46.381C87.8704 46.5335 87.8398 46.6844 87.7805 46.8249C87.7213 46.9654 87.6344 47.0926 87.5252 47.1989C87.4159 47.3053 87.2865 47.3888 87.1445 47.4443C87.0025 47.4998 86.8508 47.5264 86.6983 47.5223V47.5223Z" fill="#2DF0FF"/>
<path d="M82.8549 102.954H75.317C75.1646 102.958 75.0129 102.932 74.8709 102.876C74.7289 102.821 74.5995 102.737 74.4902 102.631C74.381 102.525 74.2941 102.398 74.2349 102.257C74.1756 102.117 74.145 101.966 74.145 101.813C74.145 101.661 74.1756 101.51 74.2349 101.369C74.2941 101.229 74.381 101.102 74.4902 100.995C74.5995 100.889 74.7289 100.805 74.8709 100.75C75.0129 100.694 75.1646 100.668 75.317 100.672H82.8549C83.0073 100.668 83.159 100.694 83.301 100.75C83.443 100.805 83.5725 100.889 83.6817 100.995C83.791 101.102 83.8778 101.229 83.9371 101.369C83.9964 101.51 84.0269 101.661 84.0269 101.813C84.0269 101.966 83.9964 102.117 83.9371 102.257C83.8778 102.398 83.791 102.525 83.6817 102.631C83.5725 102.737 83.443 102.821 83.301 102.876C83.159 102.932 83.0073 102.958 82.8549 102.954V102.954Z" fill="#2DF0FF"/>
<path d="M70.935 102.954H68.7521C68.4546 102.947 68.172 102.823 67.9644 102.61C67.7568 102.396 67.6406 102.111 67.6406 101.813C67.6406 101.516 67.7568 101.23 67.9644 101.017C68.172 100.803 68.4546 100.68 68.7521 100.672H70.935C71.0874 100.668 71.2391 100.694 71.3812 100.75C71.5232 100.805 71.6526 100.889 71.7618 100.995C71.8711 101.102 71.9579 101.229 72.0172 101.369C72.0765 101.51 72.107 101.661 72.107 101.813C72.107 101.966 72.0765 102.117 72.0172 102.257C71.9579 102.398 71.8711 102.525 71.7618 102.631C71.6526 102.737 71.5232 102.821 71.3812 102.876C71.2391 102.932 71.0874 102.958 70.935 102.954V102.954Z" fill="#2DF0FF"/>
<path d="M173.884 98.4188H160.554C160.402 98.4229 160.25 98.3963 160.108 98.3408C159.966 98.2852 159.837 98.2018 159.728 98.0954C159.618 97.9891 159.531 97.8619 159.472 97.7214C159.413 97.5809 159.382 97.43 159.382 97.2775C159.382 97.125 159.413 96.9741 159.472 96.8336C159.531 96.6931 159.618 96.5659 159.728 96.4595C159.837 96.3531 159.966 96.2697 160.108 96.2142C160.25 96.1586 160.402 96.1321 160.554 96.1361H173.884C174.182 96.144 174.465 96.2678 174.672 96.4809C174.88 96.6941 174.996 96.9799 174.996 97.2775C174.996 97.575 174.88 97.8608 174.672 98.074C174.465 98.2872 174.182 98.4109 173.884 98.4188H173.884Z" fill="#E608E6"/>
<path d="M167.501 103.215H157.181C156.878 103.215 156.588 103.095 156.374 102.88C156.16 102.666 156.04 102.376 156.04 102.073C156.04 101.771 156.16 101.48 156.374 101.266C156.588 101.052 156.878 100.932 157.181 100.932H167.501C167.803 100.932 168.094 101.052 168.308 101.266C168.522 101.48 168.642 101.771 168.642 102.073C168.642 102.376 168.522 102.666 168.308 102.88C168.094 103.095 167.803 103.215 167.501 103.215V103.215Z" fill="#E608E6"/>
<path d="M119.215 120.153C109.706 120.153 100.411 117.333 92.5051 112.05C84.5991 106.767 78.4371 99.2587 74.7985 90.4738C71.1598 81.689 70.2079 72.0224 72.0631 62.6965C73.9183 53.3706 78.4973 44.8042 85.221 38.0807C91.9448 31.3572 100.511 26.7785 109.837 24.9236C119.163 23.0688 128.83 24.021 137.614 27.6599C146.399 31.2989 153.908 37.4611 159.19 45.3673C164.473 53.2735 167.292 62.5687 167.292 72.0773C167.278 84.8236 162.208 97.0437 153.195 106.057C144.181 115.069 131.961 120.139 119.215 120.153V120.153ZM119.215 27.4759C110.394 27.476 101.771 30.0919 94.4364 34.9928C87.102 39.8936 81.3855 46.8593 78.0099 55.009C74.6343 63.1586 73.7511 72.1263 75.4721 80.7779C77.193 89.4295 81.4408 97.3765 87.6783 103.614C93.9157 109.851 101.863 114.099 110.514 115.82C119.166 117.541 128.134 116.658 136.283 113.282C144.433 109.907 151.399 104.19 156.299 96.8558C161.2 89.5214 163.816 80.8984 163.816 72.0773C163.803 60.2523 159.1 48.9154 150.738 40.5539C142.377 32.1924 131.04 27.4891 119.215 27.4759V27.4759Z" fill="#2DF0FF"/>
<path d="M136.901 97.3449H101.529C100.607 97.3449 99.7229 96.9788 99.0712 96.327C98.4194 95.6752 98.0532 94.7912 98.0532 93.8695C98.0532 92.9477 98.4194 92.0637 99.0712 91.412C99.7229 90.7602 100.607 90.394 101.529 90.394H136.901C137.822 90.394 138.706 90.7602 139.358 91.412C140.01 92.0637 140.376 92.9477 140.376 93.8695C140.376 94.7912 140.01 95.6752 139.358 96.327C138.706 96.9788 137.822 97.3449 136.901 97.3449H136.901Z" fill="#2DF0FF"/>
<path d="M109.839 52.6637C109.405 52.2293 108.816 51.9854 108.201 51.9854C107.587 51.9854 106.998 52.2293 106.564 52.6637L101.314 57.914L96.0637 52.6637C95.8486 52.4486 95.5932 52.278 95.3121 52.1616C95.031 52.0452 94.7298 51.9854 94.4256 51.9854C94.1214 51.9854 93.8202 52.0454 93.5391 52.1618C93.2581 52.2783 93.0027 52.4489 92.7877 52.6641C92.5726 52.8792 92.402 53.1346 92.2856 53.4157C92.1692 53.6967 92.1093 53.998 92.1094 54.3022C92.1094 54.6064 92.1694 54.9076 92.2858 55.1887C92.4023 55.4697 92.5729 55.725 92.7881 55.9401L98.0376 61.1897L92.7881 66.4392C92.5729 66.6543 92.4023 66.9096 92.2858 67.1907C92.1694 67.4717 92.1094 67.7729 92.1094 68.0772C92.1093 68.3814 92.1692 68.6826 92.2856 68.9637C92.402 69.2447 92.5726 69.5001 92.7877 69.7153C93.0027 69.9304 93.2581 70.1011 93.5391 70.2175C93.8202 70.334 94.1214 70.3939 94.4256 70.3939C94.7298 70.394 95.031 70.3341 95.3121 70.2177C95.5932 70.1013 95.8486 69.9307 96.0637 69.7157L101.315 64.4661L106.564 69.7157C106.999 70.15 107.588 70.394 108.203 70.3939C108.817 70.3939 109.406 70.1497 109.84 69.7153C110.275 69.2808 110.519 68.6915 110.519 68.0772C110.519 67.4628 110.275 66.8736 109.84 66.4392L104.586 61.1905L109.836 55.9409C110.052 55.7261 110.223 55.4708 110.34 55.1898C110.456 54.9087 110.517 54.6074 110.517 54.303C110.517 53.9986 110.458 53.6971 110.341 53.4158C110.225 53.1346 110.054 52.879 109.839 52.6637V52.6637Z" fill="#2DF0FF"/>
<path d="M140.392 61.1906L145.641 55.9411C145.856 55.726 146.027 55.4706 146.144 55.1896C146.26 54.9086 146.32 54.6073 146.32 54.3031C146.32 53.9989 146.26 53.6977 146.144 53.4166C146.027 53.1355 145.857 52.8802 145.642 52.665C145.427 52.4499 145.171 52.2792 144.89 52.1628C144.609 52.0463 144.308 51.9864 144.004 51.9863C143.7 51.9863 143.398 52.0462 143.117 52.1626C142.836 52.2789 142.581 52.4495 142.366 52.6646L137.114 57.9142L131.869 52.6638C131.432 52.2431 130.847 52.0108 130.24 52.0166C129.633 52.0225 129.053 52.2661 128.624 52.6952C128.195 53.1243 127.951 53.7046 127.945 54.3113C127.939 54.9181 128.172 55.503 128.593 55.9403L133.844 61.1898L128.593 66.4394C128.166 66.8755 127.929 67.4622 127.932 68.0722C127.936 68.6822 128.179 69.2663 128.611 69.6977C129.042 70.1291 129.626 70.373 130.236 70.3765C130.846 70.3801 131.433 70.1429 131.869 69.7166L137.119 64.4671L142.37 69.7166C142.585 69.9317 142.84 70.1023 143.121 70.2187C143.402 70.335 143.704 70.3949 144.008 70.3949C144.312 70.3949 144.613 70.3349 144.894 70.2184C145.175 70.102 145.431 69.9313 145.646 69.7162C145.861 69.5011 146.031 69.2457 146.148 68.9646C146.264 68.6835 146.324 68.3823 146.324 68.0781C146.324 67.7739 146.264 67.4727 146.148 67.1916C146.031 66.9106 145.86 66.6552 145.645 66.4402L140.392 61.1906Z" fill="#2DF0FF"/>
<path d="M123.851 122.471C114.342 122.471 105.047 119.651 97.1414 114.368C89.2353 109.085 83.0734 101.577 79.4347 92.7917C75.7961 84.0068 74.8441 74.3402 76.6993 65.0143C78.5545 55.6884 83.1335 47.1221 89.8573 40.3986C96.581 33.6751 105.147 29.0964 114.473 27.2415C123.799 25.3866 133.466 26.3389 142.251 29.9778C151.035 33.6167 158.544 39.779 163.826 47.6852C169.109 55.5914 171.929 64.8866 171.928 74.3952C171.914 87.1415 166.844 99.3615 157.831 108.374C148.818 117.387 136.597 122.457 123.851 122.471ZM123.851 29.7937C115.03 29.7939 106.407 32.4098 99.0726 37.3106C91.7382 42.2115 86.0217 49.1772 82.6461 57.3268C79.2705 65.4765 78.3873 74.4441 80.1083 83.0957C81.8292 91.7473 86.077 99.6943 92.3145 105.932C98.5519 112.169 106.499 116.417 115.151 118.138C123.802 119.859 132.77 118.976 140.919 115.6C149.069 112.225 156.035 106.508 160.936 99.1737C165.836 91.8393 168.452 83.2163 168.453 74.3952C168.439 62.5703 163.736 51.2335 155.374 42.872C147.013 34.5105 135.676 29.8071 123.851 29.7937V29.7937Z" fill="#E608E6"/>
<path d="M141.539 99.6628H106.166C105.245 99.6628 104.361 99.2966 103.709 98.6449C103.057 97.9931 102.691 97.1091 102.691 96.1874C102.691 95.2656 103.057 94.3816 103.709 93.7298C104.361 93.0781 105.245 92.7119 106.166 92.7119H141.538C142.46 92.7119 143.344 93.0781 143.996 93.7298C144.648 94.3816 145.014 95.2656 145.014 96.1874C145.014 97.1091 144.648 97.9931 143.996 98.6449C143.344 99.2966 142.46 99.6628 141.538 99.6628H141.539Z" fill="#E608E6"/>
<path d="M114.477 54.9803C114.042 54.5461 113.453 54.3022 112.839 54.3022C112.224 54.3022 111.635 54.5461 111.2 54.9803L105.951 60.2315L100.701 54.9803C100.263 54.5596 99.6784 54.3272 99.0716 54.3331C98.4648 54.339 97.8846 54.5826 97.4555 55.0117C97.0264 55.4408 96.7828 56.021 96.7769 56.6278C96.771 57.2346 97.0034 57.8195 97.4241 58.2567L102.674 63.5063L97.4241 68.7558C97.2021 68.9694 97.0249 69.2251 96.9029 69.508C96.7809 69.7909 96.7165 70.0953 96.7135 70.4034C96.7105 70.7114 96.769 71.017 96.8855 71.3022C97.002 71.5874 97.1742 71.8465 97.3921 72.0643C97.6099 72.2822 97.869 72.4544 98.1542 72.5709C98.4394 72.6874 98.745 72.7459 99.053 72.7429C99.3611 72.7399 99.6655 72.6755 99.9484 72.5535C100.231 72.4315 100.487 72.2543 100.701 72.0323L105.95 66.7827L111.2 72.0323C111.413 72.2543 111.669 72.4315 111.952 72.5535C112.235 72.6755 112.539 72.7399 112.847 72.7429C113.155 72.7459 113.461 72.6874 113.746 72.5709C114.031 72.4544 114.29 72.2822 114.508 72.0643C114.726 71.8465 114.898 71.5874 115.015 71.3022C115.131 71.017 115.19 70.7114 115.187 70.4034C115.184 70.0953 115.119 69.7909 114.997 69.508C114.875 69.2251 114.698 68.9694 114.476 68.7558L109.227 63.5063L114.476 58.2567C114.91 57.8222 115.154 57.233 115.155 56.6187C115.155 56.0043 114.911 55.4151 114.477 54.9803V54.9803Z" fill="#E608E6"/>
<path d="M145.029 63.5082L150.28 58.2586C150.715 57.8242 150.959 57.2348 150.959 56.6202C150.959 56.0056 150.715 55.4161 150.281 54.9814C149.846 54.5467 149.257 54.3024 148.642 54.3022C148.028 54.3021 147.438 54.5461 147.004 54.9806L141.754 60.2317L136.502 54.9806C136.068 54.5462 135.478 54.3022 134.864 54.3023C134.25 54.3024 133.661 54.5465 133.226 54.981C132.792 55.4155 132.548 56.0047 132.548 56.6191C132.548 57.2335 132.792 57.8226 133.227 58.257L138.476 63.5066L133.227 68.7561C132.792 69.1905 132.548 69.7797 132.548 70.3941C132.548 71.0084 132.792 71.5977 133.226 72.0322C133.661 72.4666 134.25 72.7108 134.864 72.7109C135.478 72.7109 136.068 72.4669 136.502 72.0326L141.753 66.783L147.003 72.0326C147.216 72.2546 147.472 72.4318 147.755 72.5538C148.038 72.6758 148.342 72.7402 148.65 72.7432C148.958 72.7462 149.264 72.6877 149.549 72.5712C149.834 72.4546 150.093 72.2824 150.311 72.0646C150.529 71.8467 150.701 71.5876 150.818 71.3025C150.934 71.0173 150.993 70.7117 150.99 70.4036C150.987 70.0956 150.923 69.7912 150.801 69.5083C150.679 69.2254 150.501 68.9697 150.279 68.7561L145.029 63.5082Z" fill="#E608E6"/>
<path d="M121.533 121.308C112.024 121.307 102.729 118.488 94.8233 113.205C86.9173 107.922 80.7555 100.413 77.117 91.6282C73.4785 82.8433 72.5268 73.1767 74.3822 63.8509C76.2376 54.5251 80.8168 45.9589 87.5408 39.2356C94.2647 32.5123 102.831 27.934 112.157 26.0795C121.483 24.225 131.15 25.1777 139.934 28.817C148.719 32.4564 156.227 38.619 161.509 46.5255C166.791 54.4321 169.61 63.7274 169.609 73.236C169.594 85.9814 164.524 98.2003 155.511 107.212C146.498 116.224 134.278 121.293 121.533 121.308V121.308ZM121.533 28.6321C112.712 28.6323 104.089 31.2482 96.7543 36.1491C89.4199 41.0499 83.7035 48.0157 80.3279 56.1654C76.9523 64.3151 76.0691 73.2828 77.7902 81.9344C79.5112 90.586 83.759 98.533 89.9966 104.77C96.2341 111.008 104.181 115.256 112.833 116.976C121.485 118.697 130.452 117.814 138.602 114.438C146.751 111.063 153.717 105.346 158.618 98.0115C163.519 90.6769 166.134 82.0539 166.134 73.2328C166.12 61.4084 161.417 50.0724 153.055 41.7117C144.694 33.351 133.357 28.6483 121.533 28.6353V28.6321Z" fill="white"/>
<path d="M139.221 98.5051H103.848C102.926 98.5051 102.042 98.1389 101.39 97.4871C100.739 96.8354 100.373 95.9514 100.373 95.0296C100.373 94.1079 100.739 93.2239 101.39 92.5721C102.042 91.9204 102.926 91.5542 103.848 91.5542H139.22C140.142 91.5542 141.026 91.9204 141.677 92.5721C142.329 93.2239 142.695 94.1079 142.695 95.0296C142.695 95.9514 142.329 96.8354 141.677 97.4871C141.026 98.1389 140.142 98.5051 139.22 98.5051H139.221Z" fill="white"/>
<path d="M112.162 53.8241C111.947 53.6088 111.691 53.438 111.41 53.3215C111.129 53.205 110.828 53.145 110.523 53.145C110.219 53.145 109.918 53.205 109.637 53.3215C109.356 53.438 109.1 53.6088 108.885 53.8241L103.636 59.0736L98.3845 53.8241C97.95 53.3897 97.3608 53.1457 96.7464 53.1458C96.132 53.1459 95.5428 53.39 95.1085 53.8245C94.6741 54.259 94.4301 54.8482 94.4302 55.4626C94.4303 56.077 94.6744 56.6661 95.1089 57.1005L100.358 62.3501L95.1089 67.5996C94.8938 67.8147 94.7232 68.07 94.6068 68.3511C94.4904 68.6321 94.4305 68.9333 94.4305 69.2374C94.4305 69.5416 94.4904 69.8428 94.6068 70.1238C94.7232 70.4048 94.8938 70.6602 95.1089 70.8753C95.3239 71.0903 95.5793 71.2609 95.8603 71.3773C96.1413 71.4938 96.4425 71.5537 96.7467 71.5537C97.0509 71.5537 97.352 71.4938 97.6331 71.3773C97.9141 71.2609 98.1694 71.0903 98.3845 70.8753L103.636 65.6257L108.885 70.8753C109.32 71.3097 109.909 71.5539 110.523 71.5539C111.138 71.554 111.727 71.31 112.161 70.8757C112.596 70.4413 112.84 69.8521 112.84 69.2377C112.84 68.6233 112.596 68.0341 112.162 67.5996L106.91 62.3501L112.162 57.1029C112.377 56.8877 112.548 56.6321 112.664 56.3508C112.781 56.0695 112.841 55.768 112.841 55.4635C112.841 55.159 112.781 54.8575 112.664 54.5762C112.548 54.2949 112.377 54.0393 112.162 53.8241V53.8241Z" fill="white"/>
<path d="M142.711 62.35L147.961 57.1004C148.176 56.8854 148.347 56.63 148.463 56.349C148.579 56.0679 148.639 55.7667 148.639 55.4625C148.639 55.1583 148.58 54.8571 148.463 54.576C148.347 54.2949 148.176 54.0395 147.961 53.8244C147.746 53.6093 147.491 53.4386 147.21 53.3222C146.929 53.2057 146.627 53.1458 146.323 53.1457C146.019 53.1457 145.718 53.2056 145.437 53.3219C145.156 53.4383 144.9 53.6089 144.685 53.824L139.434 59.0736L134.184 53.824C133.971 53.602 133.715 53.4248 133.432 53.3028C133.149 53.1808 132.845 53.1164 132.537 53.1134C132.229 53.1104 131.923 53.1689 131.638 53.2854C131.353 53.4019 131.094 53.5741 130.876 53.792C130.658 54.0098 130.486 54.2689 130.369 54.5541C130.253 54.8393 130.194 55.1449 130.197 55.4529C130.2 55.761 130.265 56.0654 130.387 56.3483C130.509 56.6311 130.686 56.8869 130.908 57.1004L136.159 62.35L130.908 67.5995C130.474 68.034 130.23 68.6233 130.23 69.2376C130.23 69.852 130.474 70.4412 130.908 70.8756C131.343 71.31 131.932 71.5539 132.546 71.5539C133.161 71.5538 133.75 71.3097 134.184 70.8752L139.434 65.6256L144.685 70.8752C145.12 71.3096 145.709 71.5536 146.323 71.5536C146.627 71.5536 146.928 71.4937 147.209 71.3773C147.49 71.2609 147.746 71.0903 147.961 70.8752C148.176 70.6601 148.346 70.4048 148.463 70.1237C148.579 69.8427 148.639 69.5415 148.639 69.2374C148.639 68.9332 148.579 68.632 148.463 68.351C148.346 68.07 148.176 67.8146 147.961 67.5995L142.711 62.35Z" fill="white"/>
<path d="M166.621 51.0172H155.869C155.564 50.9963 155.279 50.8605 155.07 50.6371C154.862 50.4138 154.746 50.1196 154.746 49.814C154.746 49.5084 154.862 49.2141 155.07 48.9908C155.279 48.7674 155.564 48.6316 155.869 48.6107H166.623C166.788 48.5994 166.954 48.6222 167.109 48.6775C167.265 48.7329 167.408 48.8197 167.529 48.9325C167.65 49.0454 167.746 49.1818 167.812 49.3335C167.878 49.4851 167.912 49.6486 167.912 49.814C167.912 49.9793 167.878 50.1428 167.812 50.2945C167.746 50.4461 167.65 50.5826 167.529 50.6954C167.408 50.8082 167.265 50.895 167.109 50.9504C166.954 51.0057 166.788 51.0285 166.623 51.0172H166.621Z" fill="white"/>
<path d="M80.798 87.2536H67.1559C66.851 87.2328 66.5654 87.0969 66.3568 86.8736C66.1482 86.6502 66.0322 86.356 66.0322 86.0504C66.0322 85.7448 66.1482 85.4506 66.3568 85.2272C66.5654 85.0039 66.851 84.868 67.1559 84.8472H80.798C81.1029 84.868 81.3885 85.0039 81.5971 85.2272C81.8057 85.4506 81.9217 85.7448 81.9217 86.0504C81.9217 86.356 81.8057 86.6502 81.5971 86.8736C81.3885 87.0969 81.1029 87.2328 80.798 87.2536V87.2536Z" fill="white"/>
<path d="M97.0446 42.2738H84.677C84.3697 42.256 84.0808 42.1215 83.8695 41.8976C83.6582 41.6737 83.5405 41.3776 83.5405 41.0698C83.5405 40.7619 83.6582 40.4658 83.8695 40.2419C84.0808 40.0181 84.3697 39.8835 84.677 39.8657H97.0446C97.3519 39.8835 97.6408 40.0181 97.8521 40.2419C98.0634 40.4658 98.1811 40.7619 98.1811 41.0698C98.1811 41.3776 98.0634 41.6737 97.8521 41.8976C97.6408 42.1215 97.3519 42.256 97.0446 42.2738V42.2738Z" fill="white"/>
<path d="M82.3008 64.0687H68.7126C68.4053 64.051 68.1164 63.9164 67.9052 63.6925C67.6939 63.4687 67.5762 63.1725 67.5762 62.8647C67.5762 62.5569 67.6939 62.2607 67.9052 62.0368C68.1164 61.813 68.4053 61.6784 68.7126 61.6606H82.3008C82.6081 61.6784 82.897 61.813 83.1083 62.0368C83.3196 62.2607 83.4373 62.5569 83.4373 62.8647C83.4373 63.1725 83.3196 63.4687 83.1083 63.6925C82.897 63.9164 82.6081 64.051 82.3008 64.0687V64.0687Z" fill="white"/>
<path d="M84.2921 38.5952H79.3875C79.2235 38.6046 79.0593 38.5805 78.905 38.5243C78.7507 38.4681 78.6095 38.3809 78.49 38.2682C78.3706 38.1554 78.2754 38.0195 78.2104 37.8687C78.1454 37.7179 78.1118 37.5554 78.1118 37.3911C78.1118 37.2269 78.1454 37.0644 78.2104 36.9135C78.2754 36.7627 78.3706 36.6268 78.49 36.514C78.6095 36.4013 78.7507 36.3142 78.905 36.2579C79.0593 36.2017 79.2235 36.1776 79.3875 36.1871H84.2921C84.5994 36.2048 84.8883 36.3394 85.0995 36.5633C85.3108 36.7871 85.4285 37.0833 85.4285 37.3911C85.4285 37.6989 85.3108 37.9951 85.0995 38.2189C84.8883 38.4428 84.5994 38.5774 84.2921 38.5952Z" fill="white"/>
<path d="M161.581 109.808H146.246C146.082 109.817 145.918 109.793 145.763 109.737C145.609 109.68 145.468 109.593 145.348 109.481C145.229 109.368 145.134 109.232 145.069 109.081C145.004 108.93 144.97 108.768 144.97 108.604C144.97 108.439 145.004 108.277 145.069 108.126C145.134 107.975 145.229 107.839 145.348 107.726C145.468 107.614 145.609 107.527 145.763 107.47C145.918 107.414 146.082 107.39 146.246 107.399H161.58C161.888 107.417 162.177 107.552 162.388 107.776C162.599 108 162.717 108.296 162.717 108.604C162.717 108.911 162.599 109.207 162.388 109.431C162.177 109.655 161.888 109.79 161.58 109.808H161.581Z" fill="white"/>
<path d="M173.594 68.3854H162.451C162.146 68.3645 161.86 68.2287 161.652 68.0053C161.443 67.782 161.327 67.4877 161.327 67.1821C161.327 66.8765 161.443 66.5823 161.652 66.3589C161.86 66.1356 162.146 65.9998 162.451 65.9789H173.597C173.762 65.9676 173.928 65.9903 174.083 66.0457C174.239 66.1011 174.382 66.1879 174.503 66.3007C174.624 66.4135 174.72 66.55 174.786 66.7016C174.852 66.8533 174.886 67.0168 174.886 67.1821C174.886 67.3474 174.852 67.511 174.786 67.6626C174.72 67.8143 174.624 67.9507 174.503 68.0636C174.382 68.1764 174.239 68.2632 174.083 68.3186C173.928 68.3739 173.762 68.3966 173.597 68.3854H173.594Z" fill="white"/>
<path d="M177.963 88.641H157.583C157.275 88.6233 156.987 88.4887 156.775 88.2648C156.564 88.041 156.446 87.7448 156.446 87.437C156.446 87.1292 156.564 86.833 156.775 86.6092C156.987 86.3853 157.275 86.2507 157.583 86.233H177.963C178.127 86.2235 178.291 86.2476 178.445 86.3038C178.599 86.36 178.741 86.4472 178.86 86.5599C178.98 86.6727 179.075 86.8086 179.14 86.9594C179.205 87.1103 179.238 87.2728 179.238 87.437C179.238 87.6013 179.205 87.7638 179.14 87.9146C179.075 88.0654 178.98 88.2013 178.86 88.3141C178.741 88.4268 178.599 88.514 178.445 88.5702C178.291 88.6264 178.127 88.6505 177.963 88.641H177.963Z" fill="white"/>
<path d="M167.698 109.808H165.883C165.575 109.79 165.286 109.655 165.075 109.431C164.864 109.207 164.746 108.911 164.746 108.604C164.746 108.296 164.864 108 165.075 107.776C165.286 107.552 165.575 107.417 165.883 107.399H167.698C167.862 107.39 168.026 107.414 168.181 107.47C168.335 107.527 168.476 107.614 168.595 107.726C168.715 107.839 168.81 107.975 168.875 108.126C168.94 108.277 168.974 108.439 168.974 108.604C168.974 108.768 168.94 108.93 168.875 109.081C168.81 109.232 168.715 109.368 168.595 109.481C168.476 109.593 168.335 109.68 168.181 109.737C168.026 109.793 167.862 109.817 167.698 109.808V109.808Z" fill="white"/>
<path d="M170.619 92.6635H165.376C165.212 92.673 165.048 92.6489 164.894 92.5927C164.739 92.5364 164.598 92.4493 164.479 92.3365C164.359 92.2238 164.264 92.0879 164.199 91.937C164.134 91.7862 164.101 91.6237 164.101 91.4595C164.101 91.2952 164.134 91.1327 164.199 90.9819C164.264 90.8311 164.359 90.6951 164.479 90.5824C164.598 90.4697 164.739 90.3825 164.894 90.3263C165.048 90.2701 165.212 90.2459 165.376 90.2554H170.619C170.926 90.2732 171.215 90.4078 171.426 90.6316C171.637 90.8555 171.755 91.1517 171.755 91.4595C171.755 91.7673 171.637 92.0635 171.426 92.2873C171.215 92.5112 170.926 92.6457 170.619 92.6635V92.6635Z" fill="white"/>
<path d="M77.7032 68.3854H70.0584C69.8935 68.3966 69.728 68.3739 69.5722 68.3186C69.4164 68.2632 69.2737 68.1764 69.1529 68.0636C69.0321 67.9507 68.9357 67.8143 68.8699 67.6626C68.804 67.511 68.77 67.3474 68.77 67.1821C68.77 67.0168 68.804 66.8533 68.8699 66.7016C68.9357 66.55 69.0321 66.4135 69.1529 66.3007C69.2737 66.1879 69.4164 66.1011 69.5722 66.0457C69.728 65.9903 69.8935 65.9676 70.0584 65.9789H77.7032C77.8681 65.9676 78.0336 65.9903 78.1894 66.0457C78.3451 66.1011 78.4879 66.1879 78.6087 66.3007C78.7295 66.4135 78.8259 66.55 78.8917 66.7016C78.9576 66.8533 78.9916 67.0168 78.9916 67.1821C78.9916 67.3474 78.9576 67.511 78.8917 67.6626C78.8259 67.8143 78.7295 67.9507 78.6087 68.0636C78.4879 68.1764 78.3451 68.2632 78.1894 68.3186C78.0336 68.3739 77.8681 68.3966 77.7032 68.3854Z" fill="white"/>
<path d="M80.7986 98.386H73.153C72.8481 98.3651 72.5625 98.2293 72.3539 98.0059C72.1453 97.7826 72.0293 97.4883 72.0293 97.1827C72.0293 96.8771 72.1453 96.5829 72.3539 96.3595C72.5625 96.1362 72.8481 96.0004 73.153 95.9795H80.7986C81.1035 96.0004 81.3891 96.1362 81.5977 96.3595C81.8063 96.5829 81.9223 96.8771 81.9223 97.1827C81.9223 97.4883 81.8063 97.7826 81.5977 98.0059C81.3891 98.2293 81.1035 98.3651 80.7986 98.386V98.386Z" fill="white"/>
<path d="M157.43 36.1049H146.977C146.67 36.0871 146.381 35.9525 146.17 35.7287C145.959 35.5048 145.841 35.2086 145.841 34.9008C145.841 34.593 145.959 34.2968 146.17 34.073C146.381 33.8491 146.67 33.7145 146.977 33.6968H157.43C157.737 33.7145 158.026 33.8491 158.237 34.073C158.448 34.2968 158.566 34.593 158.566 34.9008C158.566 35.2086 158.448 35.5048 158.237 35.7287C158.026 35.9525 157.737 36.0871 157.43 36.1049V36.1049Z" fill="white"/>
<path d="M93.2468 112.779H80.3469C80.0396 112.761 79.7507 112.627 79.5394 112.403C79.3281 112.179 79.2104 111.883 79.2104 111.575C79.2104 111.267 79.3281 110.971 79.5394 110.747C79.7507 110.524 80.0396 110.389 80.3469 110.371H93.2468C93.4108 110.362 93.575 110.386 93.7293 110.442C93.8836 110.498 94.0248 110.585 94.1443 110.698C94.2637 110.811 94.3589 110.947 94.4239 111.098C94.4889 111.248 94.5225 111.411 94.5225 111.575C94.5225 111.739 94.4889 111.902 94.4239 112.053C94.3589 112.204 94.2637 112.34 94.1443 112.452C94.0248 112.565 93.8836 112.652 93.7293 112.708C93.575 112.765 93.4108 112.789 93.2468 112.779Z" fill="white"/>
<path d="M65.1266 64.2208H63.5443C63.3793 64.2321 63.2138 64.2094 63.0581 64.154C62.9023 64.0986 62.7595 64.0119 62.6387 63.899C62.5179 63.7862 62.4216 63.6497 62.3557 63.4981C62.2898 63.3465 62.2559 63.1829 62.2559 63.0176C62.2559 62.8523 62.2898 62.6887 62.3557 62.5371C62.4216 62.3854 62.5179 62.249 62.6387 62.1361C62.7595 62.0233 62.9023 61.9365 63.0581 61.8812C63.2138 61.8258 63.3793 61.8031 63.5443 61.8143H65.1266C65.2915 61.8031 65.457 61.8258 65.6128 61.8812C65.7686 61.9365 65.9113 62.0233 66.0321 62.1361C66.1529 62.249 66.2493 62.3854 66.3151 62.5371C66.381 62.6887 66.415 62.8523 66.415 63.0176C66.415 63.1829 66.381 63.3465 66.3151 63.4981C66.2493 63.6497 66.1529 63.7862 66.0321 63.899C65.9113 64.0119 65.7686 64.0986 65.6128 64.154C65.457 64.2094 65.2915 64.2321 65.1266 64.2208Z" fill="white"/>
<mask id="mask0" mask-type="alpha" maskUnits="userSpaceOnUse" x="0" y="0" width="240" height="140">
<path d="M8.03347 0H231.967C236.404 0 240 3.53155 240 7.88732V132.113C240 136.468 236.404 140 231.967 140H8.03347C3.59699 140 0 136.468 0 132.113V7.88732C0 3.53155 3.59699 0 8.03347 0Z" fill="black"/>
</mask>
<g mask="url(#mask0)">
<path d="M26.0367 86.7819H-7.28665C-7.58036 86.7897 -7.87265 86.7385 -8.14627 86.6315C-8.4199 86.5245 -8.66934 86.3638 -8.87983 86.1588C-9.09032 85.9538 -9.2576 85.7087 -9.37183 85.4381C-9.48607 85.1674 -9.54492 84.8765 -9.54492 84.5827C-9.54492 84.2889 -9.48607 83.9981 -9.37183 83.7274C-9.2576 83.4567 -9.09032 83.2116 -8.87983 83.0067C-8.66934 82.8017 -8.4199 82.6409 -8.14627 82.5339C-7.87265 82.4269 -7.58036 82.3758 -7.28665 82.3836H26.0367C26.6099 82.3988 27.1544 82.6372 27.5544 83.0479C27.9544 83.4587 28.1782 84.0094 28.1782 84.5827C28.1782 85.1561 27.9544 85.7068 27.5544 86.1175C27.1544 86.5283 26.6099 86.7666 26.0367 86.7819Z" fill="#2DF0FF"/>
<path d="M33.1851 42.4339H19.8617C19.2886 42.4187 18.744 42.1803 18.344 41.7696C17.944 41.3588 17.7202 40.8081 17.7202 40.2348C17.7202 39.6614 17.944 39.1108 18.344 38.7C18.744 38.2892 19.2886 38.0509 19.8617 38.0356H33.1851C33.7583 38.0509 34.3028 38.2892 34.7028 38.7C35.1028 39.1108 35.3267 39.6614 35.3267 40.2348C35.3267 40.8081 35.1028 41.3588 34.7028 41.7696C34.3028 42.1803 33.7583 42.4187 33.1851 42.4339V42.4339Z" fill="#2DF0FF"/>
<path d="M54.4391 21.6905H26.522C26.2283 21.6983 25.936 21.6472 25.6623 21.5402C25.3887 21.4332 25.1393 21.2725 24.9288 21.0675C24.7183 20.8625 24.551 20.6174 24.4368 20.3467C24.3225 20.076 24.2637 19.7852 24.2637 19.4914C24.2637 19.1976 24.3225 18.9068 24.4368 18.6361C24.551 18.3654 24.7183 18.1203 24.9288 17.9153C25.1393 17.7104 25.3887 17.5496 25.6623 17.4426C25.936 17.3356 26.2283 17.2845 26.522 17.2923H54.4391C54.7328 17.2845 55.0251 17.3356 55.2987 17.4426C55.5723 17.5496 55.8218 17.7104 56.0322 17.9153C56.2427 18.1203 56.41 18.3654 56.5243 18.6361C56.6385 18.9068 56.6974 19.1976 56.6974 19.4914C56.6974 19.7852 56.6385 20.076 56.5243 20.3467C56.41 20.6174 56.2427 20.8625 56.0322 21.0675C55.8218 21.2725 55.5723 21.4332 55.2987 21.5402C55.0251 21.6472 54.7328 21.6983 54.4391 21.6905V21.6905Z" fill="#2DF0FF"/>
<path d="M47.0333 128.498H32.5092C32.2155 128.506 31.9233 128.455 31.6496 128.348C31.376 128.241 31.1266 128.08 30.9161 127.875C30.7056 127.67 30.5383 127.425 30.4241 127.154C30.3098 126.884 30.251 126.593 30.251 126.299C30.251 126.005 30.3098 125.714 30.4241 125.444C30.5383 125.173 30.7056 124.928 30.9161 124.723C31.1266 124.518 31.376 124.357 31.6496 124.25C31.9233 124.143 32.2155 124.092 32.5092 124.1H47.0333C47.327 124.092 47.6193 124.143 47.8929 124.25C48.1666 124.357 48.416 124.518 48.6265 124.723C48.8369 124.928 49.0042 125.173 49.1185 125.444C49.2327 125.714 49.2916 126.005 49.2916 126.299C49.2916 126.593 49.2327 126.884 49.1185 127.154C49.0042 127.425 48.8369 127.67 48.6265 127.875C48.416 128.08 48.1666 128.241 47.8929 128.348C47.6193 128.455 47.327 128.506 47.0333 128.498V128.498Z" fill="#2DF0FF"/>
<path d="M24.066 128.498H19.8598C19.2866 128.483 18.7421 128.245 18.3421 127.834C17.9421 127.423 17.7183 126.872 17.7183 126.299C17.7183 125.726 17.9421 125.175 18.3421 124.764C18.7421 124.353 19.2866 124.115 19.8598 124.1H24.066C24.3597 124.092 24.6519 124.143 24.9256 124.25C25.1992 124.357 25.4486 124.518 25.6591 124.723C25.8696 124.928 26.0369 125.173 26.1511 125.444C26.2654 125.714 26.3242 126.005 26.3242 126.299C26.3242 126.593 26.2654 126.884 26.1511 127.154C26.0369 127.425 25.8696 127.67 25.6591 127.875C25.4486 128.08 25.1992 128.241 24.9256 128.348C24.6519 128.455 24.3597 128.506 24.066 128.498V128.498Z" fill="#2DF0FF"/>
<path d="M29.5817 88.4904H-3.74173C-4.03544 88.4981 -4.32772 88.447 -4.60135 88.34C-4.87498 88.233 -5.12441 88.0723 -5.33491 87.8673C-5.5454 87.6623 -5.71268 87.4172 -5.82691 87.1465C-5.94115 86.8759 -6 86.585 -6 86.2912C-6 85.9974 -5.94115 85.7066 -5.82691 85.4359C-5.71268 85.1652 -5.5454 84.9201 -5.33491 84.7151C-5.12441 84.5102 -4.87498 84.3494 -4.60135 84.2424C-4.32772 84.1354 -4.03544 84.0843 -3.74173 84.0921H29.5817C30.1548 84.1073 30.6994 84.3457 31.0993 84.7564C31.4993 85.1672 31.7232 85.7179 31.7232 86.2912C31.7232 86.8646 31.4993 87.4152 31.0993 87.826C30.6994 88.2368 30.1548 88.4751 29.5817 88.4904Z" fill="#E608E6"/>
<path d="M36.73 44.1424H23.4067C22.8335 44.1272 22.289 43.8888 21.889 43.4781C21.489 43.0673 21.2651 42.5166 21.2651 41.9433C21.2651 41.3699 21.489 40.8192 21.889 40.4085C22.289 39.9977 22.8335 39.7594 23.4067 39.7441H36.73C37.3032 39.7594 37.8477 39.9977 38.2477 40.4085C38.6477 40.8192 38.8716 41.3699 38.8716 41.9433C38.8716 42.5166 38.6477 43.0673 38.2477 43.4781C37.8477 43.8888 37.3032 44.1272 36.73 44.1424V44.1424Z" fill="#E608E6"/>
<path d="M57.984 23.399H30.0669C29.7732 23.4068 29.4809 23.3557 29.2073 23.2487C28.9336 23.1417 28.6842 22.981 28.4737 22.776C28.2632 22.571 28.0959 22.3259 27.9817 22.0552C27.8674 21.7845 27.8086 21.4937 27.8086 21.1999C27.8086 20.9061 27.8674 20.6153 27.9817 20.3446C28.0959 20.0739 28.2632 19.8288 28.4737 19.6238C28.6842 19.4188 28.9336 19.2581 29.2073 19.1511C29.4809 19.0441 29.7732 18.993 30.0669 19.0008H57.984C58.2777 18.993 58.57 19.0441 58.8436 19.1511C59.1173 19.2581 59.3667 19.4188 59.5772 19.6238C59.7877 19.8288 59.955 20.0739 60.0692 20.3446C60.1834 20.6153 60.2423 20.9061 60.2423 21.1999C60.2423 21.4937 60.1834 21.7845 60.0692 22.0552C59.955 22.3259 59.7877 22.571 59.5772 22.776C59.3667 22.981 59.1173 23.1417 58.8436 23.2487C58.57 23.3557 58.2777 23.4068 57.984 23.399V23.399Z" fill="#E608E6"/>
<path d="M50.5782 130.207H36.0542C35.7605 130.214 35.4682 130.163 35.1945 130.056C34.9209 129.949 34.6715 129.789 34.461 129.584C34.2505 129.379 34.0832 129.134 33.969 128.863C33.8548 128.592 33.7959 128.301 33.7959 128.008C33.7959 127.714 33.8548 127.423 33.969 127.152C34.0832 126.882 34.2505 126.636 34.461 126.431C34.6715 126.226 34.9209 126.066 35.1945 125.959C35.4682 125.852 35.7605 125.801 36.0542 125.808H50.5782C50.8719 125.801 51.1642 125.852 51.4378 125.959C51.7115 126.066 51.9609 126.226 52.1714 126.431C52.3819 126.636 52.5492 126.882 52.6634 127.152C52.7776 127.423 52.8365 127.714 52.8365 128.008C52.8365 128.301 52.7776 128.592 52.6634 128.863C52.5492 129.134 52.3819 129.379 52.1714 129.584C51.9609 129.789 51.7115 129.949 51.4378 130.056C51.1642 130.163 50.8719 130.214 50.5782 130.207V130.207Z" fill="#E608E6"/>
<path d="M27.6109 130.207H23.4047C22.8316 130.191 22.287 129.953 21.887 129.542C21.487 129.132 21.2632 128.581 21.2632 128.008C21.2632 127.434 21.487 126.883 21.887 126.473C22.287 126.062 22.8316 125.824 23.4047 125.808H27.6109C27.9046 125.801 28.1969 125.852 28.4705 125.959C28.7441 126.066 28.9935 126.226 29.204 126.431C29.4145 126.636 29.5818 126.882 29.6961 127.152C29.8103 127.423 29.8691 127.714 29.8691 128.008C29.8691 128.301 29.8103 128.592 29.6961 128.863C29.5818 129.134 29.4145 129.379 29.204 129.584C28.9935 129.789 28.7441 129.949 28.4705 130.056C28.1969 130.163 27.9046 130.214 27.6109 130.207V130.207Z" fill="#E608E6"/>
<path d="M27.5817 87.4904H-5.74173C-6.03544 87.4981 -6.32772 87.447 -6.60135 87.34C-6.87498 87.233 -7.12441 87.0723 -7.33491 86.8673C-7.5454 86.6623 -7.71268 86.4172 -7.82691 86.1465C-7.94115 85.8759 -8 85.585 -8 85.2912C-8 84.9974 -7.94115 84.7066 -7.82691 84.4359C-7.71268 84.1652 -7.5454 83.9201 -7.33491 83.7151C-7.12441 83.5102 -6.87498 83.3494 -6.60135 83.2424C-6.32772 83.1354 -6.03544 83.0843 -5.74173 83.0921H27.5817C28.1548 83.1073 28.6994 83.3457 29.0993 83.7564C29.4993 84.1672 29.7232 84.7179 29.7232 85.2912C29.7232 85.8646 29.4993 86.4152 29.0993 86.826C28.6994 87.2368 28.1548 87.4751 27.5817 87.4904Z" fill="white"/>
<path d="M34.73 43.1424H21.4067C20.8335 43.1272 20.289 42.8888 19.889 42.4781C19.489 42.0673 19.2651 41.5166 19.2651 40.9433C19.2651 40.3699 19.489 39.8192 19.889 39.4085C20.289 38.9977 20.8335 38.7594 21.4067 38.7441H34.73C35.3032 38.7594 35.8477 38.9977 36.2477 39.4085C36.6477 39.8192 36.8716 40.3699 36.8716 40.9433C36.8716 41.5166 36.6477 42.0673 36.2477 42.4781C35.8477 42.8888 35.3032 43.1272 34.73 43.1424V43.1424Z" fill="white"/>
<path d="M55.984 22.399H28.0669C27.7732 22.4068 27.4809 22.3557 27.2073 22.2487C26.9336 22.1417 26.6842 21.981 26.4737 21.776C26.2632 21.571 26.0959 21.3259 25.9817 21.0552C25.8674 20.7845 25.8086 20.4937 25.8086 20.1999C25.8086 19.9061 25.8674 19.6153 25.9817 19.3446C26.0959 19.0739 26.2632 18.8288 26.4737 18.6238C26.6842 18.4188 26.9336 18.2581 27.2073 18.1511C27.4809 18.0441 27.7732 17.993 28.0669 18.0008H55.984C56.2777 17.993 56.57 18.0441 56.8436 18.1511C57.1173 18.2581 57.3667 18.4188 57.5772 18.6238C57.7877 18.8288 57.955 19.0739 58.0692 19.3446C58.1834 19.6153 58.2423 19.9061 58.2423 20.1999C58.2423 20.4937 58.1834 20.7845 58.0692 21.0552C57.955 21.3259 57.7877 21.571 57.5772 21.776C57.3667 21.981 57.1173 22.1417 56.8436 22.2487C56.57 22.3557 56.2777 22.4068 55.984 22.399V22.399Z" fill="white"/>
<path d="M48.5782 129.207H34.0542C33.7605 129.214 33.4682 129.163 33.1945 129.056C32.9209 128.949 32.6715 128.789 32.461 128.584C32.2505 128.379 32.0832 128.134 31.969 127.863C31.8548 127.592 31.7959 127.301 31.7959 127.008C31.7959 126.714 31.8548 126.423 31.969 126.152C32.0832 125.882 32.2505 125.636 32.461 125.431C32.6715 125.226 32.9209 125.066 33.1945 124.959C33.4682 124.852 33.7605 124.801 34.0542 124.808H48.5782C48.8719 124.801 49.1642 124.852 49.4378 124.959C49.7115 125.066 49.9609 125.226 50.1714 125.431C50.3819 125.636 50.5492 125.882 50.6634 126.152C50.7776 126.423 50.8365 126.714 50.8365 127.008C50.8365 127.301 50.7776 127.592 50.6634 127.863C50.5492 128.134 50.3819 128.379 50.1714 128.584C49.9609 128.789 49.7115 128.949 49.4378 129.056C49.1642 129.163 48.8719 129.214 48.5782 129.207V129.207Z" fill="white"/>
<path d="M25.6109 129.207H21.4047C20.8316 129.191 20.287 128.953 19.887 128.542C19.487 128.132 19.2632 127.581 19.2632 127.008C19.2632 126.434 19.487 125.883 19.887 125.473C20.287 125.062 20.8316 124.824 21.4047 124.808H25.6109C25.9046 124.801 26.1969 124.852 26.4705 124.959C26.7441 125.066 26.9935 125.226 27.204 125.431C27.4145 125.636 27.5818 125.882 27.6961 126.152C27.8103 126.423 27.8691 126.714 27.8691 127.008C27.8691 127.301 27.8103 127.592 27.6961 127.863C27.5818 128.134 27.4145 128.379 27.204 128.584C26.9935 128.789 26.7441 128.949 26.4705 129.056C26.1969 129.163 25.9046 129.214 25.6109 129.207V129.207Z" fill="white"/>
<path d="M217.753 35.6783H195.289C194.716 35.6631 194.171 35.4248 193.771 35.014C193.371 34.6032 193.147 34.0525 193.147 33.4792C193.147 32.9059 193.371 32.3552 193.771 31.9444C194.171 31.5337 194.716 31.2953 195.289 31.2801H217.753C218.047 31.2723 218.339 31.3234 218.612 31.4304C218.886 31.5374 219.135 31.6982 219.346 31.9031C219.556 32.1081 219.724 32.3532 219.838 32.6239C219.952 32.8946 220.011 33.1854 220.011 33.4792C220.011 33.773 219.952 34.0638 219.838 34.3345C219.724 34.6052 219.556 34.8503 219.346 35.0553C219.135 35.2603 218.886 35.421 218.612 35.528C218.339 35.635 218.047 35.6861 217.753 35.6783V35.6783Z" fill="#2DF0FF"/>
<path d="M221.045 70.8065H202.524C201.941 70.8065 201.382 70.5748 200.969 70.1623C200.557 69.7499 200.325 69.1906 200.325 68.6073C200.325 68.0241 200.557 67.4647 200.969 67.0523C201.382 66.6399 201.941 66.4082 202.524 66.4082H221.045C221.629 66.4082 222.188 66.6399 222.6 67.0523C223.013 67.4647 223.244 68.0241 223.244 68.6073C223.244 69.1906 223.013 69.7499 222.6 70.1623C222.188 70.5748 221.629 70.8065 221.045 70.8065V70.8065Z" fill="#2DF0FF"/>
<path d="M227.366 77.493H217.943C217.37 77.4778 216.826 77.2394 216.426 76.8286C216.026 76.4179 215.802 75.8672 215.802 75.2939C215.802 74.7205 216.026 74.1698 216.426 73.7591C216.826 73.3483 217.37 73.1099 217.943 73.0947H227.366C227.939 73.1099 228.483 73.3483 228.883 73.7591C229.283 74.1698 229.507 74.7205 229.507 75.2939C229.507 75.8672 229.283 76.4179 228.883 76.8286C228.483 77.2394 227.939 77.4778 227.366 77.493V77.493Z" fill="#2DF0FF"/>
<path d="M211.331 16.3992H207.517C206.944 16.384 206.399 16.1457 205.999 15.7349C205.599 15.3241 205.375 14.7735 205.375 14.2001C205.375 13.6268 205.599 13.0761 205.999 12.6653C206.399 12.2546 206.944 12.0162 207.517 12.001H211.331C211.904 12.0162 212.449 12.2546 212.849 12.6653C213.249 13.0761 213.473 13.6268 213.473 14.2001C213.473 14.7735 213.249 15.3241 212.849 15.7349C212.449 16.1457 211.904 16.384 211.331 16.3992V16.3992Z" fill="#2DF0FF"/>
<path d="M200.527 16.399H187.204C186.63 16.3838 186.086 16.1455 185.686 15.7347C185.286 15.3239 185.062 14.7733 185.062 14.1999C185.062 13.6266 185.286 13.0759 185.686 12.6651C186.086 12.2544 186.63 12.016 187.204 12.0008H200.527C200.821 11.993 201.113 12.0441 201.387 12.1511C201.66 12.2581 201.91 12.4189 202.12 12.6238C202.331 12.8288 202.498 13.0739 202.612 13.3446C202.726 13.6153 202.785 13.9061 202.785 14.1999C202.785 14.4937 202.726 14.7845 202.612 15.0552C202.498 15.3259 202.331 15.571 202.12 15.776C201.91 15.981 201.66 16.1417 201.387 16.2487C201.113 16.3557 200.821 16.4068 200.527 16.399V16.399Z" fill="#2DF0FF"/>
<path d="M242.453 118.287L193.699 118.288C193.405 118.296 193.113 118.244 192.84 118.137C192.566 118.03 192.317 117.87 192.106 117.665C191.896 117.46 191.728 117.215 191.614 116.944C191.5 116.673 191.441 116.382 191.441 116.089C191.441 115.795 191.5 115.504 191.614 115.233C191.728 114.963 191.896 114.717 192.106 114.513C192.317 114.308 192.566 114.147 192.84 114.04C193.113 113.933 193.405 113.882 193.699 113.889L242.455 113.889C243.028 113.904 243.572 114.143 243.972 114.553C244.372 114.964 244.596 115.515 244.596 116.088C244.596 116.661 244.372 117.212 243.972 117.623C243.572 118.034 243.028 118.272 242.455 118.287H242.453Z" fill="#2DF0FF"/>
<path d="M207.084 127.528H187.199C186.616 127.528 186.057 127.296 185.644 126.884C185.232 126.472 185 125.912 185 125.329C185 124.746 185.232 124.186 185.644 123.774C186.057 123.362 186.616 123.13 187.199 123.13H207.084C207.667 123.13 208.226 123.362 208.639 123.774C209.051 124.186 209.283 124.746 209.283 125.329C209.283 125.912 209.051 126.472 208.639 126.884C208.226 127.296 207.667 127.528 207.084 127.528V127.528Z" fill="#2DF0FF"/>
<path d="M221.8 38.15H199.336C198.763 38.1348 198.218 37.8964 197.818 37.4857C197.418 37.0749 197.194 36.5242 197.194 35.9509C197.194 35.3775 197.418 34.8269 197.818 34.4161C198.218 34.0053 198.763 33.767 199.336 33.7518H221.8C222.093 33.744 222.386 33.7951 222.659 33.9021C222.933 34.0091 223.182 34.1698 223.393 34.3748C223.603 34.5798 223.771 34.8249 223.885 35.0956C223.999 35.3662 224.058 35.6571 224.058 35.9509C224.058 36.2447 223.999 36.5355 223.885 36.8062C223.771 37.0769 223.603 37.322 223.393 37.527C223.182 37.7319 222.933 37.8927 222.659 37.9997C222.386 38.1067 222.093 38.1578 221.8 38.15V38.15Z" fill="#E608E6"/>
<path d="M225.092 73.2781H206.571C205.988 73.2781 205.429 73.0464 205.016 72.634C204.604 72.2216 204.372 71.6623 204.372 71.079C204.372 70.4958 204.604 69.9364 205.016 69.524C205.429 69.1116 205.988 68.8799 206.571 68.8799H225.092C225.675 68.8799 226.235 69.1116 226.647 69.524C227.06 69.9364 227.291 70.4958 227.291 71.079C227.291 71.6623 227.06 72.2216 226.647 72.634C226.235 73.0464 225.675 73.2781 225.092 73.2781V73.2781Z" fill="#E608E6"/>
<path d="M231.413 79.9647H221.99C221.417 79.9495 220.872 79.7111 220.472 79.3003C220.072 78.8896 219.849 78.3389 219.849 77.7655C219.849 77.1922 220.072 76.6415 220.472 76.2308C220.872 75.82 221.417 75.5816 221.99 75.5664H231.413C231.986 75.5816 232.53 75.82 232.93 76.2308C233.33 76.6415 233.554 77.1922 233.554 77.7655C233.554 78.3389 233.33 78.8896 232.93 79.3003C232.53 79.7111 231.986 79.9495 231.413 79.9647V79.9647Z" fill="#E608E6"/>
<path d="M215.378 18.8709H211.564C210.991 18.8557 210.446 18.6173 210.046 18.2066C209.646 17.7958 209.422 17.2451 209.422 16.6718C209.422 16.0984 209.646 15.5478 210.046 15.137C210.446 14.7262 210.991 14.4879 211.564 14.4727H215.378C215.951 14.4879 216.496 14.7262 216.896 15.137C217.296 15.5478 217.52 16.0984 217.52 16.6718C217.52 17.2451 217.296 17.7958 216.896 18.2066C216.496 18.6173 215.951 18.8557 215.378 18.8709V18.8709Z" fill="#E608E6"/>
<path d="M204.574 18.8707H191.25C190.677 18.8555 190.133 18.6171 189.733 18.2064C189.333 17.7956 189.109 17.2449 189.109 16.6716C189.109 16.0982 189.333 15.5475 189.733 15.1368C190.133 14.726 190.677 14.4877 191.25 14.4725H204.574C204.868 14.4647 205.16 14.5158 205.433 14.6228C205.707 14.7298 205.956 14.8905 206.167 15.0955C206.377 15.3005 206.545 15.5456 206.659 15.8163C206.773 16.087 206.832 16.3778 206.832 16.6716C206.832 16.9654 206.773 17.2562 206.659 17.5269C206.545 17.7976 206.377 18.0427 206.167 18.2477C205.956 18.4526 205.707 18.6134 205.433 18.7204C205.16 18.8274 204.868 18.8785 204.574 18.8707V18.8707Z" fill="#E608E6"/>
<path d="M246.5 120.759L197.746 120.759C197.452 120.767 197.16 120.716 196.886 120.609C196.613 120.502 196.363 120.341 196.153 120.136C195.942 119.931 195.775 119.686 195.661 119.416C195.547 119.145 195.488 118.854 195.488 118.56C195.488 118.266 195.547 117.976 195.661 117.705C195.775 117.434 195.942 117.189 196.153 116.984C196.363 116.779 196.613 116.618 196.886 116.511C197.16 116.404 197.452 116.353 197.746 116.361L246.502 116.361C247.075 116.376 247.619 116.614 248.019 117.025C248.419 117.436 248.643 117.986 248.643 118.56C248.643 119.133 248.419 119.684 248.019 120.095C247.619 120.505 247.075 120.744 246.502 120.759H246.5Z" fill="#E608E6"/>
<path d="M211.13 130H191.246C190.663 130 190.103 129.768 189.691 129.356C189.279 128.943 189.047 128.384 189.047 127.801C189.047 127.217 189.279 126.658 189.691 126.246C190.103 125.833 190.663 125.602 191.246 125.602H211.13C211.714 125.602 212.273 125.833 212.685 126.246C213.098 126.658 213.33 127.217 213.33 127.801C213.33 128.384 213.098 128.943 212.685 129.356C212.273 129.768 211.714 130 211.13 130V130Z" fill="#E608E6"/>
<path d="M219.8 37.15H197.336C196.763 37.1348 196.218 36.8964 195.818 36.4857C195.418 36.0749 195.194 35.5242 195.194 34.9509C195.194 34.3775 195.418 33.8269 195.818 33.4161C196.218 33.0053 196.763 32.767 197.336 32.7518H219.8C220.093 32.744 220.386 32.7951 220.659 32.9021C220.933 33.0091 221.182 33.1698 221.393 33.3748C221.603 33.5798 221.771 33.8249 221.885 34.0956C221.999 34.3662 222.058 34.6571 222.058 34.9509C222.058 35.2447 221.999 35.5355 221.885 35.8062C221.771 36.0769 221.603 36.322 221.393 36.527C221.182 36.7319 220.933 36.8927 220.659 36.9997C220.386 37.1067 220.093 37.1578 219.8 37.15V37.15Z" fill="white"/>
<path d="M223.092 72.2781H204.571C203.988 72.2781 203.429 72.0464 203.016 71.634C202.604 71.2216 202.372 70.6623 202.372 70.079C202.372 69.4958 202.604 68.9364 203.016 68.524C203.429 68.1116 203.988 67.8799 204.571 67.8799H223.092C223.675 67.8799 224.235 68.1116 224.647 68.524C225.06 68.9364 225.291 69.4958 225.291 70.079C225.291 70.6623 225.06 71.2216 224.647 71.634C224.235 72.0464 223.675 72.2781 223.092 72.2781V72.2781Z" fill="white"/>
<path d="M229.413 78.9647H219.99C219.417 78.9495 218.872 78.7111 218.472 78.3003C218.072 77.8896 217.849 77.3389 217.849 76.7655C217.849 76.1922 218.072 75.6415 218.472 75.2308C218.872 74.82 219.417 74.5816 219.99 74.5664H229.413C229.986 74.5816 230.53 74.82 230.93 75.2308C231.33 75.6415 231.554 76.1922 231.554 76.7655C231.554 77.3389 231.33 77.8896 230.93 78.3003C230.53 78.7111 229.986 78.9495 229.413 78.9647V78.9647Z" fill="white"/>
<path d="M213.378 17.8709H209.564C208.991 17.8557 208.446 17.6173 208.046 17.2066C207.646 16.7958 207.422 16.2451 207.422 15.6718C207.422 15.0984 207.646 14.5478 208.046 14.137C208.446 13.7262 208.991 13.4879 209.564 13.4727H213.378C213.951 13.4879 214.496 13.7262 214.896 14.137C215.296 14.5478 215.52 15.0984 215.52 15.6718C215.52 16.2451 215.296 16.7958 214.896 17.2066C214.496 17.6173 213.951 17.8557 213.378 17.8709V17.8709Z" fill="white"/>
<path d="M202.574 17.8707H189.25C188.677 17.8555 188.133 17.6171 187.733 17.2064C187.333 16.7956 187.109 16.2449 187.109 15.6716C187.109 15.0982 187.333 14.5475 187.733 14.1368C188.133 13.726 188.677 13.4877 189.25 13.4725H202.574C202.868 13.4647 203.16 13.5158 203.433 13.6228C203.707 13.7298 203.956 13.8905 204.167 14.0955C204.377 14.3005 204.545 14.5456 204.659 14.8163C204.773 15.087 204.832 15.3778 204.832 15.6716C204.832 15.9654 204.773 16.2562 204.659 16.5269C204.545 16.7976 204.377 17.0427 204.167 17.2477C203.956 17.4526 203.707 17.6134 203.433 17.7204C203.16 17.8274 202.868 17.8785 202.574 17.8707V17.8707Z" fill="white"/>
<path d="M244.5 119.759L195.746 119.759C195.452 119.767 195.16 119.716 194.886 119.609C194.613 119.502 194.363 119.341 194.153 119.136C193.942 118.931 193.775 118.686 193.661 118.416C193.547 118.145 193.488 117.854 193.488 117.56C193.488 117.266 193.547 116.976 193.661 116.705C193.775 116.434 193.942 116.189 194.153 115.984C194.363 115.779 194.613 115.618 194.886 115.511C195.16 115.404 195.452 115.353 195.746 115.361L244.502 115.361C245.075 115.376 245.619 115.614 246.019 116.025C246.419 116.436 246.643 116.986 246.643 117.56C246.643 118.133 246.419 118.684 246.019 119.095C245.619 119.505 245.075 119.744 244.502 119.759H244.5Z" fill="white"/>
<path d="M209.13 129H189.246C188.663 129 188.103 128.768 187.691 128.356C187.279 127.943 187.047 127.384 187.047 126.801C187.047 126.217 187.279 125.658 187.691 125.246C188.103 124.833 188.663 124.602 189.246 124.602H209.13C209.714 124.602 210.273 124.833 210.685 125.246C211.098 125.658 211.33 126.217 211.33 126.801C211.33 127.384 211.098 127.943 210.685 128.356C210.273 128.768 209.714 129 209.13 129V129Z" fill="white"/>
</g>
</svg>
