<svg xmlns="http://www.w3.org/2000/svg" width="14.203" height="14.203" viewBox="0 0 14.203 14.203"><defs><style>.a{fill:#c4c4c4;}</style></defs><path class="a" d="M12.575,55.687H1.627A1.629,1.629,0,0,1,0,54.06V44.3a1.629,1.629,0,0,1,1.627-1.627H12.575A1.629,1.629,0,0,1,14.2,44.3V54.06A1.629,1.629,0,0,1,12.575,55.687ZM1.627,43.556a.741.741,0,0,0-.74.74V54.06a.741.741,0,0,0,.74.74H12.575a.741.741,0,0,0,.74-.74V44.3a.741.741,0,0,0-.74-.74Zm0,0" transform="translate(0 -41.484)"/><path class="a" d="M13.759,171.556H.444a.444.444,0,1,1,0-.888H13.759a.444.444,0,1,1,0,.888Zm0,0" transform="translate(0 -165.934)"/><path class="a" d="M107.112,3.551a.444.444,0,0,1-.444-.444V.444a.444.444,0,1,1,.888,0V3.107A.444.444,0,0,1,107.112,3.551Zm0,0" transform="translate(-103.709)"/><path class="a" d="M373.776,3.551a.444.444,0,0,1-.444-.444V.444a.444.444,0,1,1,.888,0V3.107A.444.444,0,0,1,373.776,3.551Zm0,0" transform="translate(-362.976)"/></svg>