<svg xmlns="http://www.w3.org/2000/svg" width="34.001" height="32.585" viewBox="0 0 34.001 32.585"><defs><style>.a{fill:#2df0ff;}</style></defs><path class="a" d="M17,.5A16.853,16.853,0,0,0,0,17.206a16.734,16.734,0,0,0,11.624,15.85c.85.157,1.162-.36,1.162-.8,0-.4-.014-1.448-.021-2.841-4.729,1.007-5.726-2.241-5.726-2.241a4.453,4.453,0,0,0-1.891-2.444c-1.54-1.036.119-1.014.119-1.014a3.557,3.557,0,0,1,2.6,1.721,3.661,3.661,0,0,0,4.951,1.39A3.537,3.537,0,0,1,13.9,24.59c-3.776-.418-7.744-1.854-7.744-8.255A6.383,6.383,0,0,1,7.9,11.852a5.845,5.845,0,0,1,.149-4.422s1.424-.448,4.675,1.713a16.3,16.3,0,0,1,8.5,0c3.23-2.16,4.654-1.713,4.654-1.713a6.006,6.006,0,0,1,.17,4.422,6.408,6.408,0,0,1,1.743,4.482c0,6.418-3.974,7.83-7.757,8.241a3.964,3.964,0,0,1,1.148,3.091c0,2.236-.021,4.032-.021,4.575,0,.438.3.961,1.169.793A16.683,16.683,0,0,0,34,17.206,16.856,16.856,0,0,0,17,.5Z" transform="translate(0 -0.5)"/></svg>