<svg xmlns="http://www.w3.org/2000/svg" width="32.781" height="32.749" viewBox="0 0 32.781 32.749"><defs><style>.a{fill:#2df0ff;}</style></defs><path class="a" d="M190.684,357.505h.1a16.439,16.439,0,1,0-.1,0Zm2.943-1.875a14.768,14.768,0,0,1-5.884,0l-.131-.027V350.93a2.9,2.9,0,0,1,.719-2.105c.369-.487.725-1,1.057-1.533l-1.251-.2c-3.9-.571-5.46-2.608-6.083-4.216a6.774,6.774,0,0,1,1.056-6.488,1.011,1.011,0,0,0,.2-.969,5.893,5.893,0,0,1-.06-2.941l.034-.145.148.021a7.444,7.444,0,0,1,2.646,1.2c.131.081.259.161.384.236a1.214,1.214,0,0,0,.718.171,14.057,14.057,0,0,1,3.52-.505,12.065,12.065,0,0,1,3.288.472,1.225,1.225,0,0,0,.919-.139l.37-.229a7.382,7.382,0,0,1,2.658-1.209l.148-.021.034.145a5.894,5.894,0,0,1-.06,2.933,1.011,1.011,0,0,0,.2.973,6.774,6.774,0,0,1,1.059,6.49c-.624,1.609-2.186,3.645-6.086,4.217l-1.241.194.35.53a9.665,9.665,0,0,0,.7,1,2.9,2.9,0,0,1,.719,2.117V355.6Zm-2.942-29.262a14.763,14.763,0,0,1,4.9,28.694l-.217.076V350.93a4.5,4.5,0,0,0-.524-2.309l-.1-.181.2-.054a8.108,8.108,0,0,0,5.864-4.943,8.352,8.352,0,0,0-1.085-7.8l-.044-.06.016-.072c.31-1.382.252-3.336-.38-4.214a1.311,1.311,0,0,0-1.145-.592,7.987,7.987,0,0,0-3.736,1.49l-.219.133-.067-.018a13.522,13.522,0,0,0-3.489-.46,13.245,13.245,0,0,0-3.429.46l-.067.018-.141-.084a8.23,8.23,0,0,0-3.9-1.539,1.322,1.322,0,0,0-1.079.588c-.635.883-.693,2.836-.384,4.219l.016.072-.044.06a8.36,8.36,0,0,0-1.084,7.8,8.106,8.106,0,0,0,5.863,4.943l.2.054-.1.182a4.032,4.032,0,0,0-.486,1.634l-.008.1-.092.039a2.729,2.729,0,0,1-1.693.139,2.3,2.3,0,0,1-1.353-1.15,3.27,3.27,0,0,0-2.678-1.959.726.726,0,0,0-.8.588,1.523,1.523,0,0,0-.012.2c.07.844.527.825.55.827a1.456,1.456,0,0,1,1.411.92c.043.081.09.167.145.259a3.829,3.829,0,0,0,4.291,1.915l.2-.049v3.055l-.218-.076a14.764,14.764,0,0,1,4.9-28.694Z" transform="translate(-174.294 -324.756)"/></svg>