<svg xmlns="http://www.w3.org/2000/svg" width="30.014" height="32.942" viewBox="0 0 30.014 32.942"><defs><style>.a{fill:#2df0ff;}</style></defs><g transform="translate(-567.079 -322.339)"><g transform="translate(567.079 322.339)"><path class="a" d="M582.094,355.282a2.8,2.8,0,0,1-1.135-.248,64.36,64.36,0,0,1-12.422-7.19,2.5,2.5,0,0,1-1.038-1.862l-.088-1.092c-.092-1.139-.184-2.279-.256-3.419-.039-.61-.05-1.225-.06-1.82,0-.268-.009-.536-.016-.8a.708.708,0,0,1,.017-.178v-.1c0-.209,0-.42.006-.629l.016-.3c.072-1.464.145-2.927.234-4.39.038-.658.12-1.313.186-1.81a2.358,2.358,0,0,1,.968-1.6,64.026,64.026,0,0,1,10-6.084c.6-.292,1.2-.568,1.812-.843l.74-.337a2.442,2.442,0,0,1,2.068-.006,64.442,64.442,0,0,1,12.523,7.236,2.468,2.468,0,0,1,1.035,1.8c.114,1.277.234,2.649.327,4.029.032.475.036.95.04,1.409,0,.2,0,.407.007.611l.016.563c.012.434.025.868.017,1.3-.037,1.994-.1,3.668-.281,5.357l-.039.38c-.032.325-.065.65-.111.973a2.4,2.4,0,0,1-.987,1.608,64.135,64.135,0,0,1-12.435,7.2A2.82,2.82,0,0,1,582.094,355.282Zm-13.581-16.305c.005.217.008.434.012.651.011.578.02,1.175.057,1.753.072,1.132.163,2.263.254,3.394l.088,1.1a1.068,1.068,0,0,0,.464.825,63.006,63.006,0,0,0,12.146,7.03,1.289,1.289,0,0,0,1.129,0,62.763,62.763,0,0,0,12.158-7.041.966.966,0,0,0,.423-.663c.044-.3.074-.608.1-.912l.04-.39c.176-1.638.237-3.276.273-5.231.007-.41-.005-.821-.017-1.231l-.015-.577c0-.209-.006-.419-.008-.628,0-.442-.007-.884-.037-1.324-.093-1.367-.211-2.729-.325-4a1.032,1.032,0,0,0-.459-.774,63.03,63.03,0,0,0-12.245-7.076,1.023,1.023,0,0,0-.9-.006l-.746.341c-.594.27-1.188.539-1.774.826a62.522,62.522,0,0,0-9.777,5.947.919.919,0,0,0-.4.645c-.067.5-.14,1.1-.176,1.708-.088,1.457-.16,2.917-.233,4.374l-.015.3c-.009.18-.006.36,0,.54l0,.274A.73.73,0,0,1,568.513,338.976Zm-.7-.149h0Z" transform="translate(-567.079 -322.339)"/></g><g transform="translate(575.493 329.938)"><path class="a" d="M581.5,337.336v.238q0,6.183,0,12.366c0,.326.122.448.447.449h2.422c.369,0,.483-.114.483-.487v-4.771h4.7v4.414c-.17,0-.331,0-.492,0a.338.338,0,0,0-.352.229.348.348,0,0,0,.1.409q1.078,1,2.158,2a.349.349,0,0,0,.542,0c.722-.665,1.44-1.335,2.16-2a.354.354,0,0,0,.1-.411.338.338,0,0,0-.355-.226c-.161,0-.323,0-.5,0V349.3q0-6.175,0-12.349c0-.341-.117-.459-.454-.459h-2.4c-.383,0-.5.112-.5.493v4.758h-4.694v-4.4c.171,0,.327,0,.483,0a.341.341,0,0,0,.354-.226.346.346,0,0,0-.1-.411q-1.084-1.01-2.171-2.016a.349.349,0,0,0-.517-.006c-.141.122-.274.253-.411.38-.578.537-1.155,1.075-1.736,1.608a.384.384,0,0,0-.136.436.359.359,0,0,0,.4.236C581.188,337.329,581.332,337.336,581.5,337.336Z" transform="translate(-580.618 -334.567)"/></g></g></svg>