<svg xmlns="http://www.w3.org/2000/svg" width="30" height="33.075" viewBox="0 0 30 33.075"><defs><style>.a{fill:#2df0ff;}</style></defs><g transform="translate(-115.386 -484.009)"><path class="a" d="M115.407,500.563c0-.3-.013-.6,0-.892.082-1.639.162-3.278.26-4.916.037-.617.109-1.233.191-1.847a1.717,1.717,0,0,1,.719-1.18,66.128,66.128,0,0,1,10.379-6.313c.878-.429,1.774-.823,2.663-1.232a1.819,1.819,0,0,1,1.557,0,66.552,66.552,0,0,1,13,7.51,1.829,1.829,0,0,1,.784,1.349c.126,1.4.247,2.806.343,4.212.047.693.034,1.389.048,2.084.013.642.046,1.285.034,1.927-.035,1.855-.092,3.71-.291,5.556-.05.465-.088.931-.154,1.393a1.767,1.767,0,0,1-.739,1.193,66.322,66.322,0,0,1-12.905,7.474,2.1,2.1,0,0,1-1.789,0,66.514,66.514,0,0,1-12.893-7.462,1.87,1.87,0,0,1-.788-1.409c-.124-1.574-.26-3.148-.36-4.724-.058-.907-.054-1.817-.078-2.726Zm9-6.419v.25q0,6.489,0,12.979c0,.342.127.47.469.47h2.543c.387,0,.507-.12.507-.511q0-2.391,0-4.782v-.225h4.935v4.633c-.179,0-.348,0-.517,0a.356.356,0,0,0-.37.24.366.366,0,0,0,.108.43q1.132,1.052,2.265,2.1a.367.367,0,0,0,.57,0q1.136-1.047,2.266-2.1a.37.37,0,0,0,.1-.431.355.355,0,0,0-.372-.237c-.169.005-.338,0-.527,0V506.7q0-6.48,0-12.96c0-.357-.123-.482-.477-.482h-2.524c-.4,0-.521.118-.521.517q0,2.391,0,4.782v.213h-4.927v-4.622c.18,0,.344,0,.507,0a.357.357,0,0,0,.372-.237.364.364,0,0,0-.1-.431q-1.138-1.059-2.278-2.116a.366.366,0,0,0-.542-.007c-.148.128-.288.265-.432.4-.607.563-1.212,1.128-1.822,1.688a.4.4,0,0,0-.142.457.377.377,0,0,0,.423.247C124.075,494.137,124.226,494.144,124.4,494.144Z" transform="translate(0 0)"/></g></svg>