<svg xmlns="http://www.w3.org/2000/svg" width="19.968" height="20.017" viewBox="0 0 19.968 20.017"><defs><style>.a{fill:#c4c4c4;}</style></defs><path class="a" d="M135.331,24.087a5.336,5.336,0,1,0-5.344-5.344A5.345,5.345,0,0,0,135.331,24.087Zm0-9.279a3.935,3.935,0,1,1-3.935,3.935A3.946,3.946,0,0,1,135.331,14.808Z" transform="translate(-125.38 -13.415)"/><path class="a" d="M.7,348.336H19.263a.7.7,0,0,0,.7-.7,6.713,6.713,0,0,0-6.705-6.705H6.705A6.713,6.713,0,0,0,0,347.631.7.7,0,0,0,.7,348.336Zm6-6h6.558a5.292,5.292,0,0,1,5.246,4.59H1.459A5.306,5.306,0,0,1,6.705,342.336Z" transform="translate(0 -328.319)"/></svg>