<svg xmlns="http://www.w3.org/2000/svg" width="24.999" height="19.483" viewBox="0 0 24.999 19.483"><defs><style>.a{fill:#2df0ff;}</style></defs><path class="a" d="M1.667,73.094a.56.56,0,0,0,.066,0l2.22,10.241h17.1l2.22-10.241.066,0a1.7,1.7,0,1,0-1.584-1.183L16.632,75.97l-3.21-8.989a1.722,1.722,0,0,0,.746-1.423,1.666,1.666,0,1,0-3.33,0,1.712,1.712,0,0,0,.746,1.423l-3.5,8.989L3.253,71.911a1.78,1.78,0,0,0,.081-.525A1.687,1.687,0,0,0,1.67,69.678a1.708,1.708,0,0,0,0,3.416Z" transform="translate(-0.002 -63.85)"/></svg>