<svg xmlns="http://www.w3.org/2000/svg" width="15.903" height="22.556" viewBox="0 0 15.903 22.556"><defs><style>.a{fill:#c4c4c4;}</style></defs><path class="a" d="M329.012,407.285a.106.106,0,0,1,.105.105v15.294a.562.562,0,0,1-.24.46l-6.47,4.529a.328.328,0,0,1-.374,0l-6.472-4.531a.564.564,0,0,1-.239-.461V407.39a.106.106,0,0,1,.105-.105h13.585m0-1.054H315.427a1.159,1.159,0,0,0-1.159,1.159v15.293a1.613,1.613,0,0,0,.689,1.324l6.472,4.531a1.38,1.38,0,0,0,1.58,0l6.472-4.531a1.616,1.616,0,0,0,.689-1.324V407.39a1.16,1.16,0,0,0-1.159-1.159Z" transform="translate(-314.268 -406.231)"/><path class="a" d="M325.968,414.306,323.975,416l.621,2.547a.547.547,0,0,1-.82.6l-2.207-1.388-2.212,1.383a.547.547,0,0,1-.82-.6l.621-2.547-1.993-1.694a.551.551,0,0,1,.315-.969l2.6-.19.984-2.429a.548.548,0,0,1,1.015,0l.982,2.431,2.6.19a.553.553,0,0,1,.314.972Z" transform="translate(-313.618 -405.522)"/></svg>