<svg xmlns="http://www.w3.org/2000/svg" width="26.999" height="21.483" viewBox="0 0 26.999 21.483"><defs><style>.a{fill:none;}.b,.c{stroke:none;}.c{fill:#c4c4c4;}</style></defs><g transform="translate(1 1)"><g class="a" transform="translate(-0.002 -63.85)"><path class="b" d="M1.667,73.094a.56.56,0,0,0,.066,0l2.22,10.241h17.1l2.22-10.241.066,0a1.7,1.7,0,1,0-1.584-1.183l-5.558,4.561-2.772-9.491a1.722,1.722,0,0,0,.746-1.423,1.666,1.666,0,1,0-3.33,0,1.712,1.712,0,0,0,.746,1.423L8.751,76.472l-5.5-4.561a1.78,1.78,0,0,0,.081-.525A1.687,1.687,0,0,0,1.67,69.678a1.708,1.708,0,0,0,0,3.416Z"/><path class="c" d="M 12.5028247833252 63.84999847412109 C 11.58375453948975 63.84999847412109 10.83774471282959 64.61510467529297 10.83774471282959 65.55777740478516 C 10.83774471282959 66.15316772460938 11.13310432434082 66.67543029785156 11.58374404907227 66.98094177246094 L 8.750974655151367 76.47216796875 L 3.253244400024414 71.91106414794922 C 3.304164886474609 71.74655151367188 3.334714889526367 71.56899261474609 3.334714889526367 71.38619232177734 C 3.334714889526367 70.44351196289062 2.588733673095703 69.67839813232422 1.669633865356445 69.67839813232422 C 0.7479839324951172 69.67839813232422 0.002004623413085938 70.44351196289062 0.002004623413085938 71.38619232177734 C 0.002004623413085938 72.328857421875 0.7479343414306641 73.09397888183594 1.667034149169922 73.09397888183594 C 1.68995475769043 73.09397888183594 1.71031379699707 73.09397888183594 1.733234405517578 73.09136199951172 L 3.953344345092773 83.33259582519531 L 12.50280475616455 83.33259582519531 L 21.04971504211426 83.33259582519531 L 23.26982498168945 73.09136199951172 C 23.29271507263184 73.09136199951172 23.31307411193848 73.09397888183594 23.33601379394531 73.09397888183594 C 24.25512504577637 73.09397888183594 25.0011043548584 72.328857421875 25.0011043548584 71.38619232177734 C 25.0011043548584 70.44351196289062 24.25509452819824 69.67839813232422 23.33601379394531 69.67839813232422 C 22.41693496704102 69.67839813232422 21.67093467712402 70.44351196289062 21.67093467712402 71.38619232177734 C 21.67093467712402 71.56899261474609 21.69896507263184 71.74655151367188 21.75240516662598 71.91106414794922 L 16.19433403015137 76.47216796875 L 13.42190456390381 66.98094177246094 C 13.87002468109131 66.67543029785156 14.16791439056396 66.15055847167969 14.16791439056396 65.55777740478516 C 14.16791439056396 64.61510467529297 13.42190456390381 63.84999847412109 12.5028247833252 63.84999847412109 M 12.5028247833252 62.84999847412109 C 13.97236442565918 62.84999847412109 15.16791439056396 64.06471252441406 15.16791439056396 65.55777740478516 C 15.16791439056396 66.19804382324219 14.94591236114502 66.80686187744141 14.55307865142822 67.28693389892578 L 16.72988128662109 74.73907470703125 L 20.67336845397949 71.50293731689453 C 20.6717472076416 71.46415710449219 20.67093467712402 71.42522430419922 20.67093467712402 71.38619232177734 C 20.67093467712402 69.89311218261719 21.86648368835449 68.67839813232422 23.33601379394531 68.67839813232422 C 24.80555534362793 68.67839813232422 26.0011043548584 69.89311218261719 26.0011043548584 71.38619232177734 C 26.0011043548584 72.60952758789062 25.19858169555664 73.64596557617188 24.10029411315918 73.98053741455078 L 22.02701377868652 83.54446411132812 L 21.85616493225098 84.33259582519531 L 21.04971504211426 84.33259582519531 L 12.50280475616455 84.33259582519531 L 3.953344345092773 84.33259582519531 L 3.146894454956055 84.33259582519531 L 2.976043701171875 83.54446411132812 L 0.9027633666992188 73.98053741455078 C -0.1954975128173828 73.64596557617188 -0.9979953765869141 72.60952758789062 -0.9979953765869141 71.38619232177734 C -0.9979953765869141 69.89311218261719 0.1986942291259766 68.67839813232422 1.669633865356445 68.67839813232422 C 3.139163970947266 68.67839813232422 4.334714889526367 69.89311218261719 4.334714889526367 71.38619232177734 C 4.334714889526367 71.42632293701172 4.333803176879883 71.46648406982422 4.331985473632812 71.50668334960938 L 8.225341796875 74.73674774169922 L 10.44957828521729 67.28441619873047 C 10.05856704711914 66.80545806884766 9.83774471282959 66.19783782958984 9.83774471282959 65.55777740478516 C 9.83774471282959 64.06471252441406 11.03329467773438 62.84999847412109 12.5028247833252 62.84999847412109 Z"/></g></g></svg>