<svg xmlns="http://www.w3.org/2000/svg" width="15.096" height="21.405" viewBox="0 0 15.096 21.405"><defs><style>.a{fill:#2df0ff;}</style></defs><path class="a" d="M86.292,0H73.4a1.1,1.1,0,0,0-1.1,1.1V15.615a1.533,1.533,0,0,0,.654,1.257l6.143,4.3a1.313,1.313,0,0,0,1.5,0l6.143-4.3a1.533,1.533,0,0,0,.654-1.257V1.1A1.1,1.1,0,0,0,86.292,0ZM84.481,8.285l-2.1,1.784.654,2.683a.577.577,0,0,1-.864.633l-2.325-1.462-2.33,1.457a.577.577,0,0,1-.864-.633l.654-2.683-2.1-1.784a.58.58,0,0,1,.332-1.021l2.736-.2L79.311,4.5a.577.577,0,0,1,1.069,0l1.034,2.561,2.736.2A.582.582,0,0,1,84.481,8.285Z" transform="translate(-72.3)"/></svg>