<svg xmlns="http://www.w3.org/2000/svg" width="30" height="30" viewBox="0 0 30 30"><defs><style>.a{fill:#2df0ff;}</style></defs><path class="a" d="M25.605,0H4.395A4.4,4.4,0,0,0,0,4.395V25.605A4.4,4.4,0,0,0,4.395,30H25.605A4.4,4.4,0,0,0,30,25.605V4.395A4.4,4.4,0,0,0,25.605,0ZM15.059,22.852a7.91,7.91,0,1,1,7.91-7.91A7.919,7.919,0,0,1,15.059,22.852ZM23.848,8.789a2.637,2.637,0,1,1,2.637-2.637A2.64,2.64,0,0,1,23.848,8.789Zm0,0"/><path class="a" d="M392.879,90a.879.879,0,1,0,.879.879A.879.879,0,0,0,392.879,90Zm0,0" transform="translate(-369.031 -84.727)"/><path class="a" d="M158.152,150a6.152,6.152,0,1,0,6.152,6.152A6.16,6.16,0,0,0,158.152,150Zm0,0" transform="translate(-143.094 -141.211)"/></svg>