<svg xmlns="http://www.w3.org/2000/svg" width="28.204" height="28.205" viewBox="0 0 28.204 28.205"><defs><style>.a{fill:#2df0ff;}</style></defs><g transform="translate(-749.824 -1260.288)"><g transform="translate(749.824 1260.288)"><path class="a" d="M388.747,356.454h17.04a5.589,5.589,0,0,0,5.582-5.582v-17.04a5.589,5.589,0,0,0-5.582-5.582h-17.04a5.589,5.589,0,0,0-5.582,5.582v17.04A5.589,5.589,0,0,0,388.747,356.454Zm-3.82-22.623a3.824,3.824,0,0,1,3.82-3.82h17.04a3.824,3.824,0,0,1,3.82,3.82v17.04a3.824,3.824,0,0,1-3.82,3.82h-17.04a3.824,3.824,0,0,1-3.82-3.82Z" transform="translate(-383.165 -328.249)"/><path class="a" d="M400.9,353.188a7.2,7.2,0,1,0-7.2-7.2h0A7.211,7.211,0,0,0,400.9,353.188Zm0-12.645a5.441,5.441,0,1,1-5.441,5.441A5.441,5.441,0,0,1,400.9,340.543Z" transform="translate(-386.798 -331.882)"/><path class="a" d="M415.029,339.327a1.982,1.982,0,0,0,2.031-1.933c0-.03,0-.06,0-.09a1.981,1.981,0,0,0-1.936-2.023h-.095a1.982,1.982,0,0,0-2.03,1.933c0,.029,0,.06,0,.089a1.979,1.979,0,0,0,1.934,2.023Zm.208-2.216c.371.328-.476.726-.476.195,0-.317.432-.235.476-.2Z" transform="translate(-393.456 -330.674)"/></g></g></svg>