<svg xmlns="http://www.w3.org/2000/svg" width="47.653" height="22.034" viewBox="0 0 47.653 22.034"><defs><style>.a{fill:#787878;}</style></defs><g transform="translate(-1238.751 -523.935)"><g transform="translate(1245.161 528.687)"><g transform="translate(15.405 6.928)"><path class="a" d="M1251.895,531.442a.173.173,0,0,1-.138-.071.178.178,0,0,1-.02-.153l.086-.229a.172.172,0,0,1,.213-.1.168.168,0,0,1,.1.214l-.084.227A.169.169,0,0,1,1251.895,531.442Z" transform="translate(-1251.728 -530.884)"/></g><path class="a" d="M1246.257,532.509l3.68-5.649h-.89l-3.423,5.34H1243.4v-5.34h-.736v11.982h.736v-5.957h2.225l3.663,5.957h.89l-3.92-6.3Z" transform="translate(-1242.497 -526.695)"/><path class="a" d="M1250.245,539.076h-.89a.163.163,0,0,1-.141-.079l-3.616-5.879h-1.967v5.791a.165.165,0,0,1-.165.166h-.736a.166.166,0,0,1-.166-.166V526.927a.165.165,0,0,1,.166-.165h.736a.165.165,0,0,1,.165.165V532.1h1.97l3.374-5.263a.163.163,0,0,1,.14-.076H1250a.165.165,0,0,1,.146.086.163.163,0,0,1-.007.17l-3.635,5.578,3.877,6.228a.168.168,0,0,1,0,.166A.165.165,0,0,1,1250.245,539.076Zm-.8-.331h.5l-3.762-6.047a.16.16,0,0,1-.025-.087.285.285,0,0,1,.027-.124l3.513-5.393h-.492l-3.374,5.265a.168.168,0,0,1-.14.076h-2.226a.166.166,0,0,1-.167-.166v-5.174h-.4v11.651h.4v-5.793a.165.165,0,0,1,.167-.165h2.226a.163.163,0,0,1,.141.079Z" transform="translate(-1242.564 -526.762)"/><g transform="translate(9.928)"><rect class="a" width="0.736" height="11.982" transform="translate(0.165 0.166)"/><path class="a" d="M1249.371,539.076h-.736a.165.165,0,0,1-.165-.166V526.927a.165.165,0,0,1,.165-.165h.736a.164.164,0,0,1,.165.165v11.982A.164.164,0,0,1,1249.371,539.076Zm-.57-.331h.4V527.093h-.4Z" transform="translate(-1248.47 -526.762)"/></g><g transform="translate(12.82)"><path class="a" d="M1254.774,526.861l-4.485,11.981h.787l1.542-4.142h0l.257-.684h0l.086-.227,0,0h0l1.745-4.633c.188-.513.446-1.437.446-1.437h.034s.257.925.445,1.437l1.73,4.633h0l.439,1.172h0l1.459,3.883h.788l-4.485-11.981Z" transform="translate(-1250.123 -526.695)"/><path class="a" d="M1260.113,539.076h-.789a.167.167,0,0,1-.156-.107l-3.628-9.69c-.1-.271-.217-.65-.306-.953-.089.3-.207.682-.306.953l-1.745,4.636-.01.018-.069.187-.007.022-1.8,4.825a.166.166,0,0,1-.156.109h-.789a.166.166,0,0,1-.156-.224l4.485-11.982a.167.167,0,0,1,.156-.108h.787a.167.167,0,0,1,.156.108l4.485,11.982a.176.176,0,0,1-.02.153A.17.17,0,0,1,1260.113,539.076Zm-.674-.331h.433l-4.361-11.651h-.556l-4.359,11.651h.432l1.748-4.7.007-.02.086-.229.01-.02,1.737-4.616c.185-.5.439-1.411.44-1.421a.171.171,0,0,1,.162-.123.216.216,0,0,1,.195.123c0,.01.255.925.44,1.422Z" transform="translate(-1250.19 -526.762)"/></g><g transform="translate(24.733)"><path class="a" d="M1265.813,526.861v9.4c0,.6.086,1.506.086,1.506h-.034s-.582-.958-.975-1.506l-6.83-9.4h-.684v11.981h.734v-9.4c0-.6-.084-1.506-.084-1.506h.034s.582.958.975,1.506l6.83,9.4h.684V526.861Z" transform="translate(-1257.209 -526.695)"/><path class="a" d="M1266.617,539.076h-.684a.168.168,0,0,1-.135-.067l-6.83-9.4c-.207-.289-.46-.684-.659-1,.018.286.035.624.035.9v9.4a.166.166,0,0,1-.167.166h-.735a.166.166,0,0,1-.167-.166V526.927a.166.166,0,0,1,.167-.165h.684a.164.164,0,0,1,.135.067l6.83,9.4c.207.287.46.684.659,1-.018-.286-.035-.624-.035-.9v-9.4a.165.165,0,0,1,.166-.165h.735a.165.165,0,0,1,.166.165v11.982A.166.166,0,0,1,1266.617,539.076Zm-.6-.331h.432V527.093h-.4v9.231c0,.585.084,1.483.086,1.493a.173.173,0,0,1-.042.126.167.167,0,0,1-.124.054.225.225,0,0,1-.177-.081c-.005-.007-.582-.958-.967-1.494l-6.781-9.328h-.432v11.651h.4v-9.232c0-.583-.084-1.481-.086-1.491a.171.171,0,0,1,.042-.126.211.211,0,0,1,.3.025c0,.008.581.958.966,1.5Z" transform="translate(-1257.277 -526.762)"/></g><g transform="translate(15.489 6.928)"><path class="a" d="M1251.878,530.981h0Z" transform="translate(-1251.71 -530.816)"/><path class="a" d="M1251.946,531.214h0a.166.166,0,1,1,.168-.166A.166.166,0,0,1,1251.945,531.214Z" transform="translate(-1251.778 -530.883)"/></g><g transform="translate(16.711 11.292)"><path class="a" d="M1257.687,534.267h0l-.258-.689h0v0h-4.57l-.257.685h5.083Z" transform="translate(-1252.438 -533.411)"/><path class="a" d="M1257.753,534.5l-.018,0h-5.063a.165.165,0,0,1-.156-.224l.255-.684a.169.169,0,0,1,.156-.109h4.546a.159.159,0,0,1,.178.106l.252.674a.144.144,0,0,1,.017.071.169.169,0,0,1-.136.165Zm-4.843-.333h4.6l-.131-.353h-4.341Z" transform="translate(-1252.505 -533.479)"/></g></g><g transform="translate(1238.751 523.935)"><path class="a" d="M1283.638,523.935h-42.544a2.346,2.346,0,0,0-2.344,2.342v17.35a2.346,2.346,0,0,0,2.344,2.342h40.643a.424.424,0,1,0,0-.847h-40.643a1.5,1.5,0,0,1-1.495-1.495v-17.35a1.5,1.5,0,0,1,1.495-1.495h42.544a1.5,1.5,0,0,1,1.493,1.495v14.075a.424.424,0,0,0,.849,0V526.277A2.345,2.345,0,0,0,1283.638,523.935Z" transform="translate(-1238.751 -523.935)"/></g><g transform="translate(1284.048 543.089)"><circle class="a" cx="1.178" cy="1.178" r="1.178"/></g></g></svg>