<svg xmlns="http://www.w3.org/2000/svg" width="14.374" height="14.269" viewBox="0 0 14.374 14.269"><defs><style>.a{fill:#c4c4c4;}</style></defs><g transform="translate(0 -1.688)"><g transform="translate(0 1.688)"><g transform="translate(0 0)"><path class="a" d="M253.5,423.172c-.119.03-.239.056-.359.078a.578.578,0,0,0,.211,1.136c.143-.026.287-.058.428-.093a.578.578,0,1,0-.279-1.121Z" transform="translate(-244.86 -410.133)"/><path class="a" d="M412.627,137.348a.578.578,0,0,0,1.1-.363c-.046-.138-.1-.277-.15-.411A.578.578,0,1,0,412.5,137C412.546,137.116,412.589,137.232,412.627,137.348Z" transform="translate(-399.716 -132.054)"/><path class="a" d="M321.469,394.007c-.1.067-.207.132-.313.193a.578.578,0,1,0,.577,1c.126-.073.251-.15.373-.23a.578.578,0,0,0-.637-.964Z" transform="translate(-310.952 -381.792)"/><path class="a" d="M428.79,207.867a.578.578,0,1,0-1.155.045c0,.122.006.246,0,.367a.578.578,0,1,0,1.155.026C428.8,208.159,428.8,208.012,428.79,207.867Z" transform="translate(-414.421 -200.958)"/><path class="a" d="M377.933,344.184a.578.578,0,0,0-.809.115c-.073.1-.151.194-.23.287a.578.578,0,0,0,.065.815c.014.012.028.023.042.033a.578.578,0,0,0,.772-.1c.094-.111.187-.226.274-.343A.578.578,0,0,0,377.933,344.184Z" transform="translate(-365.115 -333.49)"/><path class="a" d="M414.634,279.378a.578.578,0,0,0-.724.379c-.036.116-.077.233-.121.348a.578.578,0,0,0,1.08.411c.052-.136.1-.275.144-.413A.578.578,0,0,0,414.634,279.378Z" transform="translate(-400.968 -270.772)"/><path class="a" d="M6.118,14.81a5.966,5.966,0,0,1-1.482-.471l-.016-.009c-.111-.052-.221-.108-.328-.166h0a6.164,6.164,0,0,1-.575-.359A6.03,6.03,0,0,1,3.74,3.928l.021-.014a6.04,6.04,0,0,1,6.769-.054l-.451.652c-.126.182-.048.314.171.294l1.961-.176a.323.323,0,0,0,.292-.423l-.527-1.9c-.059-.213-.21-.238-.336-.057l-.452.654A7.136,7.136,0,0,0,5.96,1.8q-.277.048-.547.117h0l-.021.006A7.125,7.125,0,0,0,1.437,4.566c-.008.01-.017.019-.025.03-.033.044-.065.089-.1.134-.052.074-.1.15-.153.226-.006.009-.011.018-.016.028a7.124,7.124,0,0,0-1.139,4.2s0,.01,0,.015c.007.145.018.292.034.437,0,.009,0,.018,0,.028.016.145.036.291.062.437a7.131,7.131,0,0,0,2.011,3.867l.007.008,0,0a7.281,7.281,0,0,0,.921.769,7.125,7.125,0,0,0,2.865,1.2.578.578,0,0,0,.2-1.137Z" transform="translate(0 -1.688)"/><path class="a" d="M206.455,83.2a.468.468,0,0,0-.468.468v4.658l4.26,2.2a.467.467,0,0,0,.429-.83l-3.754-1.941V83.666A.467.467,0,0,0,206.455,83.2Z" transform="translate(-199.622 -80.68)"/></g></g></g></svg>