<svg xmlns="http://www.w3.org/2000/svg" width="31.937" height="26.565" viewBox="0 0 31.937 26.565"><defs><style>.a{fill:#2df0ff;}</style></defs><path class="a" d="M31.429,37.581a12.647,12.647,0,0,1-2.2.743,6.866,6.866,0,0,0,1.812-2.886h0a.36.36,0,0,0-.527-.419h0a12.707,12.707,0,0,1-3.367,1.391.858.858,0,0,1-.21.026.892.892,0,0,1-.589-.225,6.885,6.885,0,0,0-4.556-1.719,7.362,7.362,0,0,0-2.181.337,6.671,6.671,0,0,0-4.5,4.806,7.345,7.345,0,0,0-.163,2.535.247.247,0,0,1-.062.193.255.255,0,0,1-.19.086h-.024A18.054,18.054,0,0,1,2.265,35.818h0a.36.36,0,0,0-.59.046h0A6.893,6.893,0,0,0,2.8,44.233a6.17,6.17,0,0,1-1.57-.608h0a.36.36,0,0,0-.535.31h0a6.894,6.894,0,0,0,4.021,6.351l-.147,0a6.2,6.2,0,0,1-1.16-.111h0a.36.36,0,0,0-.41.463h0a6.9,6.9,0,0,0,5.451,4.694A12.705,12.705,0,0,1,1.329,57.5h-.8a.527.527,0,0,0-.515.4.545.545,0,0,0,.261.6,18.9,18.9,0,0,0,9.5,2.56,19.157,19.157,0,0,0,8.115-1.722,17.92,17.92,0,0,0,5.938-4.449A19.507,19.507,0,0,0,27.463,48.8,19.235,19.235,0,0,0,28.7,42.132v-.1a1.172,1.172,0,0,1,.438-.912,13.609,13.609,0,0,0,2.738-3h0a.36.36,0,0,0-.445-.529Z" transform="translate(0 -34.491)"/></svg>