<svg xmlns="http://www.w3.org/2000/svg" width="32.68" height="26.736" viewBox="0 0 32.68 26.736"><defs><style>.a{fill:#2df0ff;}</style></defs><path class="a" d="M309.917,331.565a.8.8,0,0,0-.236-.567.736.736,0,0,0-.568-.235.8.8,0,0,0-.406.111,4.547,4.547,0,0,1-3.713.615l-.105-.061a7.279,7.279,0,0,0-8.569-1.153,6.969,6.969,0,0,0-3.782,6.52l.014.291-.289-.036a17.531,17.531,0,0,1-11.418-6.237.806.806,0,0,0-1.131-.105.786.786,0,0,0-.18.212,7.087,7.087,0,0,0-.159,6.97l.162.3-.339.056a.839.839,0,0,0-.706.84,7.142,7.142,0,0,0,2.49,5.4l.206.176-.2.187a.8.8,0,0,0-.205.831,7.266,7.266,0,0,0,4.116,4.409l.51.211-.5.238a12.4,12.4,0,0,1-6.778,1.131.8.8,0,0,0-.531,1.473h0a19.307,19.307,0,0,0,10.313,2.972,18.857,18.857,0,0,0,19.134-19.172l0-.115.088-.075A7.733,7.733,0,0,0,309.917,331.565Zm-4.134,4.211a.8.8,0,0,0-.348.7,17.252,17.252,0,0,1-17.514,18.029h-.012a17.805,17.805,0,0,1-5.711-.939l-.882-.3.914-.176a13.969,13.969,0,0,0,5.826-2.616l.021-.016a.8.8,0,0,0-.494-1.419,5.739,5.739,0,0,1-4.483-2.333l-.266-.364.449-.027a7.118,7.118,0,0,0,1.383-.221.8.8,0,0,0-.054-1.56,5.621,5.621,0,0,1-4.26-3.826l-.131-.418.425.106a7.013,7.013,0,0,0,1.543.205.815.815,0,0,0,.814-.79.8.8,0,0,0-.359-.682,5.438,5.438,0,0,1-2.331-5.948l.108-.419.3.308a19.182,19.182,0,0,0,12.74,5.687.81.81,0,0,0,.577-.206.8.8,0,0,0,.263-.553.773.773,0,0,0-.02-.22,5.35,5.35,0,0,1,2.792-6.093,5.6,5.6,0,0,1,6.842,1.042c.531.558,2.53.6,3.568.363l.524-.122-.25.476A7.043,7.043,0,0,1,305.783,335.776Z" transform="translate(-277.237 -329.375)"/></svg>