<svg xmlns="http://www.w3.org/2000/svg" width="44" height="27" viewBox="0 0 44 27"><defs><style>.a{fill:#2df0ff;}.b,.d{fill:none;}.b{stroke:#2df0ff;}.c{stroke:none;}</style></defs><g transform="translate(-949 -1261)"><path class="a" d="M9.625-11.375v7.492A3.836,3.836,0,0,1,8.457-.93,4.5,4.5,0,0,1,5.266.156,4.553,4.553,0,0,1,2.1-.9a3.77,3.77,0,0,1-1.2-2.9v-7.578H3.25v7.508a2.167,2.167,0,0,0,.535,1.629,2.054,2.054,0,0,0,1.48.512q1.977,0,2.008-2.078v-7.57Zm6.133,7.211H13.891V0H11.547V-11.375h4.227a4.778,4.778,0,0,1,3.109.9,3.1,3.1,0,0,1,1.094,2.539A3.5,3.5,0,0,1,19.473-6a3.437,3.437,0,0,1-1.527,1.238L20.406-.109V0H17.891Zm-1.867-1.9h1.891a1.936,1.936,0,0,0,1.367-.449,1.606,1.606,0,0,0,.484-1.238,1.719,1.719,0,0,0-.457-1.266,1.9,1.9,0,0,0-1.4-.461H13.891ZM24.25,0H21.906V-11.375H24.25Z" transform="translate(959 1280)"/><g class="b" transform="translate(949 1261)"><rect class="c" width="44" height="27" rx="6"/><rect class="d" x="0.5" y="0.5" width="43" height="26" rx="5.5"/></g></g></svg>