<svg xmlns="http://www.w3.org/2000/svg" width="44.001" height="26.999" viewBox="0 0 44.001 26.999"><defs><style>.a{fill:#2df0ff;}</style></defs><path class="a" d="M8021,5067h-32a6.007,6.007,0,0,1-6-6v-15a6.007,6.007,0,0,1,6-6h32a6.007,6.007,0,0,1,6,6v15A6.007,6.007,0,0,1,8021,5067Zm-27.093-19.374v7.576a3.792,3.792,0,0,0,1.195,2.9,4.577,4.577,0,0,0,3.165,1.056,4.518,4.518,0,0,0,3.191-1.086,3.852,3.852,0,0,0,1.168-2.953v-7.492h-2.351v7.57c-.022,1.378-.7,2.077-2.008,2.077a2.064,2.064,0,0,1-1.481-.512,2.181,2.181,0,0,1-.534-1.63v-7.506Zm12.986,7.21h1.865l2.133,4.164h2.516v-.108l-2.461-4.65a3.428,3.428,0,0,0,1.527-1.237,3.507,3.507,0,0,0,.506-1.942,3.11,3.11,0,0,0-1.094-2.538,4.793,4.793,0,0,0-3.11-.9h-4.226V5059h2.345v-4.163Zm8.014-7.21V5059h2.345v-11.374Zm-6.124,5.312h-1.89v-3.415h1.881a1.9,1.9,0,0,1,1.4.461,1.717,1.717,0,0,1,.457,1.265,1.617,1.617,0,0,1-.483,1.239A1.945,1.945,0,0,1,8008.781,5052.938Z" transform="translate(-7983 -5040.001)"/></svg>